<svg xmlns="http://www.w3.org/2000/svg" viewBox="0 0 200 200">
  <path d="M147.89 72.13v55.74c0 6.54-5.3 11.85-11.85 11.85H97.75c-2.75 0-5.41-.96-7.54-2.71l-33.79-27.87c-5.75-4.74-5.75-13.54 0-18.28l33.79-27.87c2.12-1.75 4.79-2.71 7.54-2.71h38.29c6.54 0 11.85 5.3 11.85 11.85Z" style="fill:#497bed;stroke:#000;stroke-miterlimit:10;stroke-width:6px"/>
  <path d="M94.19 112.66a.87.87 0 0 1-.66-.28.9.9 0 0 1-.28-.66c0-.11.03-.21.09-.3l9.74-27.34c.08-.31.28-.61.58-.9.3-.28.71-.43 1.22-.43h7.82c.54 0 .95.14 1.24.43.28.29.47.58.55.9l9.78 27.34c.03.08.04.19.04.3 0 .26-.09.48-.28.66s-.41.28-.66.28h-6.58c-.48 0-.84-.11-1.07-.34-.23-.23-.38-.44-.47-.64l-1.32-3.59h-10.29l-1.32 3.59c-.08.2-.23.41-.45.64-.21.23-.58.34-1.09.34H94.2Zm11.4-11.79h6.37l-3.2-9.61-3.16 9.61Z" style="fill:#000;stroke-width:0"/>
</svg>
