<svg xmlns="http://www.w3.org/2000/svg" viewBox="0 0 350 350">
  <circle cx="178.91" cy="178.24" r="130.46" style="stroke:#000;stroke-miterlimit:10;stroke-width:6px;fill:#000"/>
  <circle cx="171.09" cy="171.76" r="130.46" style="fill:#90cdf0;stroke:#000;stroke-miterlimit:10;stroke-width:6px"/>
  <circle cx="171.09" cy="171.76" r="100.08" style="fill:#497bed;stroke:#000;stroke-miterlimit:10;stroke-width:6px"/>
  <path d="M230.68 213.83c-1.83 0-3.5-.9-4.49-2.42-.95-1.46-2.1-3.07-3.32-4.78-3.54-4.94-7.49-10.46-9.51-16.32-.56.04-1.13.06-1.71.06-1.64 0-3.39-.15-5.21-.46-3.95-.66-7.81-1.59-11.55-2.5-5.29-1.28-10.28-2.5-15.55-2.99-2.87-.27-5.83-.41-8.79-.41-14.34 0-27.89 3.12-42.24 6.43-1.54.35-3.08.71-4.63 1.06-5.96 1.36-14.12 3.22-22.02 3.22-9.88 0-17.09-3-21.42-8.9-4.03-5.5-3.8-10.26-2.89-13.29 2.37-7.89 11.3-12.65 16.47-14.8 2.77-17.75 25.94-21.55 45.25-21.55 6.09 0 12.76.37 19.82 1.09 20.2 2.08 47.99 9.74 66.62 34.32.81-.02 1.6-.04 2.38-.04 15.63 0 26.86 4.81 34.33 14.7 1.07 1.41 1.29 3.21.59 4.82-.79 1.8-2.64 3.15-4.62 3.36-1.9.2-3.81.29-5.69.29-5.64 0-11.17-.88-16.51-2.62 1.38 5.78 1.29 11.86-.31 17.92-.6 2.28-2.61 3.82-5 3.82Z" style="fill:#e48341;stroke-width:0"/>
  <path d="M139.07 139.17c7.65 0 14.71.58 19.51 1.08 25.77 2.65 49.98 13.11 65.46 34.39 1.28-.06 2.56-.1 3.84-.1 12.24 0 24.07 3.1 31.94 13.51 1.14 1.51-.46 3.23-1.94 3.39-1.81.19-3.6.28-5.38.28-7.5 0-14.71-1.64-21.45-4.79 3.15 6.91 3.78 14.56 1.73 22.32-.28 1.06-1.18 1.58-2.1 1.58-.75 0-1.51-.35-1.97-1.05-4.03-6.21-11.24-14.49-13.19-22.77-1.25.25-2.55.36-3.87.36-1.56 0-3.15-.15-4.72-.42-9.22-1.53-17.91-4.64-27.3-5.52-3.07-.29-6.09-.42-9.08-.42-16.25 0-31.45 3.9-47.53 7.56-5.86 1.33-13.8 3.14-21.35 3.14s-14.7-1.8-19-7.68c-8.53-11.63 3.72-20.4 13.94-24.19 1.2-17.14 23.64-20.68 42.48-20.68m-.02-5.99c-34.49 0-45.39 11.44-47.9 22.44-5.74 2.61-14.2 7.74-16.69 16.05-1.11 3.68-1.42 9.44 3.34 15.93 4.93 6.72 12.95 10.13 23.84 10.13 8.23 0 16.58-1.9 22.68-3.29 1.55-.35 3.09-.71 4.63-1.06 14.18-3.27 27.57-6.35 41.57-6.35 2.87 0 5.74.13 8.51.39 5.05.48 9.94 1.66 15.12 2.92 3.79.92 7.7 1.87 11.76 2.54 1.87.31 3.68.48 5.38.49 2.32 5.53 6.01 10.68 9.11 15.01 1.2 1.68 2.33 3.26 3.24 4.66a8.32 8.32 0 0 0 7 3.79c3.77 0 6.94-2.43 7.9-6.05 1.29-4.87 1.67-9.76 1.17-14.52 4.17.97 8.43 1.46 12.75 1.46 1.98 0 4-.1 5.99-.31 3.07-.32 5.84-2.34 7.06-5.15 1.14-2.61.78-5.54-.94-7.83-7.96-10.54-20.32-15.89-36.72-15.89h-.93c-15.32-19.45-38.67-31.28-67.76-34.27-7.16-.74-13.93-1.11-20.13-1.11Z" style="stroke-width:0;fill:#000"/>
  <path d="M81.6 175.6c.29 1.84.73 3.59 1.88 5.1 1.21 1.58 2.61 2.85 4.23 4.01 3.04 2.16 6.67 3.5 10.3 4.27 8.8 1.86 17.73.98 26.45-.87 8.68-1.85 17.15-4.57 25.8-6.56 4.22-.97 8.52-1.82 12.84-2.19 4.29-.36 8.65-.26 12.94.14 4.74.45 9.43 1.41 13.99 2.76 2.31.69 4.62 1.37 6.89 2.19 2.28.82 4.47 1.89 6.93 1.98.72.03 1.37-.92.89-1.55-2.48-3.25-7.07-4.75-10.76-6.21-3.93-1.56-8.13-2.57-12.28-3.32-8.44-1.53-17.09-1.82-25.61-.77-17.16 2.1-33.41 10.22-50.96 9.27-4.01-.22-8.25-.99-11.8-2.64-1.64-.77-3.2-1.68-4.53-2.85-1.36-1.2-2.95-2.59-3.94-4.11-1.15-1.77-3.57-.58-3.26 1.37Zm17.71-16.99c12.9-3.69 26.22-5.2 39.62-5.28s26.4 1.64 39.14 5.14c3.51.97 7.01 2.03 10.45 3.23 1.79.62 3.56 1.29 5.33 1.98s3.48 1.52 5.29 2c.53.14.79-.56.36-.86-2.7-1.83-6.09-2.94-9.13-4.11-3.13-1.2-6.3-2.32-9.52-3.27-6.5-1.92-13.16-3.36-19.87-4.33-13.1-1.9-26.58-2.19-39.69-.14a158.06 158.06 0 0 0-22.13 5.1c-.34.11-.2.64.15.54Z" style="stroke-width:0;fill:#ffcd7d"/>
</svg>
