<svg xmlns="http://www.w3.org/2000/svg" viewBox="0 0 200 200">
  <path d="M52.11 72.13v55.74c0 6.54 5.3 11.85 11.85 11.85h38.29c2.75 0 5.41-.96 7.54-2.71l33.79-27.87c5.75-4.74 5.75-13.54 0-18.28l-33.79-27.87a11.854 11.854 0 0 0-7.54-2.71H63.96c-6.54 0-11.85 5.3-11.85 11.85Z" style="fill:#497bed;stroke:#000;stroke-miterlimit:10;stroke-width:6px"/>
  <path d="M83.93 112.66c-.28 0-.54-.11-.77-.32a1.03 1.03 0 0 1-.34-.79V83.87c0-.31.11-.58.34-.79.23-.21.48-.32.77-.32h7.09c.31 0 .58.11.81.32.23.21.34.48.34.79v21.19h12.34c.31 0 .58.11.81.32.23.21.34.48.34.79v5.38c0 .31-.11.58-.34.79-.23.21-.5.32-.81.32H83.92Z" style="fill:#000;stroke-width:0"/>
</svg>
