<svg xmlns="http://www.w3.org/2000/svg" viewBox="0 0 350 350">
  <circle cx="178.91" cy="178.24" r="130.46" style="stroke:#000;stroke-miterlimit:10;stroke-width:6px;fill:#000"/>
  <circle cx="171.09" cy="171.76" r="130.46" style="fill:#90cdf0;stroke:#000;stroke-miterlimit:10;stroke-width:6px"/>
  <circle cx="171.09" cy="171.76" r="100.08" style="fill:#497bed;stroke:#000;stroke-miterlimit:10;stroke-width:6px"/>
  <path d="M225 214.2c-2.57 0-4.83-.26-6.72-.76-.74-.2-1.4-.43-2.03-.7a4.88 4.88 0 0 1-.65-.32c-2.74-1.38-5.5-3.84-8.69-6.68-3.06-2.74-6.53-5.83-10.87-8.83a65.794 65.794 0 0 0-5.3-3.3l-.68-.37c-4.64-2.53-9.48-4.42-14.79-5.77h-.03l-.4-.11c-.32-.09-.62-.17-.94-.24l-.21-.05c-4.13-.96-8.59-1.59-13.25-1.89-2.36-.15-4.86-.22-7.42-.22-2.77 0-5.72.09-8.76.26-.87.04-1.7.09-2.54.15-4.83.34-10.03.88-15.89 1.66-.48.06-2.45.32-2.45.32-4.47.62-8.74 1.29-12.86 1.94-2.78.43-5.43.85-7.91 1.21-1.43.21-2.81.41-4.14.59-4.25.55-7.39.81-9.89.81h-.02c-2.26 0-9.04-.02-10.03-5.32-.57-3.09.53-8.84 16.59-23.18 8.49-7.58 17.92-14.61 20.03-15.76.21-.12.47-.27.77-.44 1.53-.89 4.09-2.39 8.16-4.01a67.61 67.61 0 0 1 4.28-1.54c4.53-1.5 9.74-2.74 15.46-3.67 1.1-.18 2.24-.36 3.43-.52 7.11-.98 15.01-1.54 23.44-1.64.89-.01 1.8-.03 2.73-.03h.88c9.39.04 18.74 1.04 27.83 2.97 1.61.35 2.92.65 4.1.96l.17.04c9.76 2.41 18.86 5.84 27.05 10.18.87.46 1.73.93 2.57 1.42 11.01 6.23 19.24 13.66 23.78 21.45.38.64.74 1.29 1.06 1.96 2.12 4.25 3.02 8.46 2.66 12.48-1.69 18.58-23.54 26.94-38.51 26.94Z" style="fill:#e48341;stroke-width:0"/>
  <path d="M174.29 138.8c9.53.04 18.66 1.09 27.2 2.91 1.4.3 2.79.62 4.16.97h.01c9.8 2.43 18.71 5.86 26.37 9.92.85.44 1.67.9 2.48 1.36 10.57 5.99 18.5 13.16 22.69 20.37.35.59.67 1.17.96 1.77 1.84 3.7 2.68 7.38 2.36 10.89-1.55 16.97-22.56 24.21-35.52 24.21-2.28 0-4.31-.22-5.95-.66-.61-.16-1.15-.35-1.64-.57-.13-.05-.25-.11-.38-.19-4.78-2.35-10.21-9.08-19.28-15.34-1.91-1.31-3.98-2.62-6.24-3.83h-.01c-4.47-2.44-9.68-4.6-15.86-6.14h-.01c-.42-.11-.82-.21-1.25-.32h-.01c-4.13-.96-8.7-1.64-13.75-1.96-2.51-.16-5.05-.23-7.6-.23-2.97 0-5.96.1-8.93.27-.86.04-1.72.09-2.59.15-5.46.38-10.87.99-16.07 1.68-.82.1-1.63.21-2.43.32-7.62 1.06-14.72 2.26-20.83 3.16-1.43.21-2.79.4-4.11.58-3.69.48-6.9.78-9.49.78-4.16 0-6.71-.78-7.1-2.87-1.59-8.62 31.6-33.83 35.11-35.75 1.29-.71 3.88-2.41 8.6-4.3 1.21-.48 2.58-.99 4.09-1.48 3.89-1.29 8.82-2.55 15.02-3.56 1.07-.18 2.19-.35 3.34-.51 6.41-.88 14.02-1.5 23.08-1.62.88-.01 1.78-.03 2.69-.03h.88m.02-5.98h-.9c-.94 0-1.86.01-2.78.03-8.54.11-16.55.67-23.82 1.67-1.22.16-2.4.35-3.49.53-5.87.96-11.23 2.23-15.93 3.79-1.44.47-2.9.99-4.42 1.6-4.29 1.71-6.97 3.27-8.57 4.21-.28.16-.51.3-.71.41-2.58 1.41-12.36 8.82-20.58 16.15-16.9 15.09-18.35 21.59-17.55 25.95.66 3.55 3.46 7.78 13 7.78 2.63 0 5.89-.26 10.26-.83 1.37-.18 2.77-.38 4.22-.6 2.48-.36 5.11-.77 7.89-1.21 4.11-.64 8.36-1.31 12.84-1.93.34-.04.69-.09 1.04-.14.44-.06.88-.12 1.32-.17h.06c5.8-.77 10.93-1.31 15.69-1.64.84-.06 1.64-.11 2.44-.14h.08c2.99-.17 5.88-.26 8.59-.26 2.5 0 4.93.07 7.23.22 4.5.28 8.8.89 12.76 1.81l.37.09c.22.06.45.11.67.17l.78.21h.06c4.92 1.28 9.42 3.06 13.74 5.41l1.17.64c1.5.85 3 1.8 4.56 2.87 4.18 2.88 7.58 5.92 10.57 8.59 3.32 2.97 6.2 5.54 9.28 7.1.29.16.58.3.88.43.75.32 1.55.6 2.4.83 2.17.58 4.69.87 7.51.87 16.11 0 39.63-9.2 41.49-29.66.41-4.59-.59-9.33-2.97-14.11-.34-.69-.72-1.4-1.16-2.14-4.81-8.24-13.41-16.03-24.88-22.53-.93-.54-1.8-1.02-2.68-1.48-8.38-4.44-17.71-7.95-27.7-10.42l-.34-.08c-1.16-.29-2.42-.59-4-.93-9.3-1.98-18.87-3-28.45-3.04h-.01Z" style="stroke-width:0;fill:#000"/>
  <g style="opacity:.5">
    <path d="M174.29 138.8c-.13.13-.21.24-.32.37-.82 1.04-1.41 2.21-1.95 3.44-1.07 2.45-1.74 5.12-3.2 8.06-.18.37-.38.75-.62 1.12-.23.38-.47.76-.78 1.15-.29.39-.62.76-.96 1.09l-.52.51-.49.42c-1.33 1.14-2.62 1.95-3.88 2.74-2.53 1.59-5.02 2.93-7.38 4.33-2.39 1.38-4.65 2.79-6.68 4.33-.52.38-.97.78-1.47 1.19l-.67.62c-.2.2-.51.43-.61.58-.27.34-.63.64-.81 1.06-.11.2-.28.38-.37.61l-.27.71c-.72 1.93-.54 4.6-.13 7.25.23 1.28.52 2.56.87 3.87-.86.04-1.72.09-2.59.15-.64-.87-1.21-1.79-1.76-2.75-.72-1.38-1.39-2.82-1.79-4.43-.27-.77-.32-1.66-.47-2.5-.03-.43-.03-.88-.04-1.33-.01-.45-.03-.9.08-1.36l.23-1.4c.09-.47.28-.92.44-1.39.28-.95.85-1.76 1.38-2.62.28-.45.53-.69.8-1.05l.8-.95c.57-.57 1.14-1.17 1.72-1.71 2.36-2.17 4.93-3.89 7.5-5.42 2.58-1.5 5.19-2.79 7.67-4.04 1.23-.61 2.43-1.24 3.4-1.83l.37-.23.29-.2c.21-.13.39-.29.56-.44.19-.13.37-.33.56-.54.19-.18.38-.42.57-.67 1.54-1.95 3.03-4.65 5.15-6.99.54-.59 1.14-1.17 1.78-1.71.88-.01 1.78-.03 2.69-.03h.88Zm31.36 3.88c-.59.52-1.12 1.09-1.58 1.73-1.77 2.24-2.96 4.99-4.65 7.91-.86 1.44-1.78 2.98-3.22 4.42-1.47 1.53-3.28 2.56-4.89 3.36-3.26 1.5-6.41 2.4-9.43 3.34-2.99.9-5.91 1.77-8.46 2.88-1.24.57-2.43 1.2-3.36 1.9-.28.16-.43.38-.66.56-.21.19-.44.39-.53.49-.24.25-.42.48-.53.83-.09.34-.15.81-.1 1.35.04.54.21 1.16.4 1.79.43 1.26 1.09 2.59 1.87 3.89 1.45 2.49 3.23 4.89 5.12 7.34-.42-.11-.82-.21-1.25-.32h-.01c-.93-.48-1.84-1.02-2.73-1.59-1.4-.9-2.73-1.92-3.99-3.07-1.25-1.16-2.44-2.46-3.45-4.06-.97-1.57-1.87-3.56-1.74-6.06.06-1.25.49-2.54 1.14-3.61.33-.59.66-.96.99-1.35.34-.39.66-.83 1.02-1.15 1.43-1.45 3.03-2.44 4.61-3.35 3.18-1.72 6.39-2.77 9.49-3.73 3.1-.93 6.13-1.73 8.76-2.69 1.31-.49 2.32-1.01 3.21-1.67.93-.69 1.9-1.78 2.88-2.93 1.96-2.27 3.99-5.12 6.95-7.19 1.4.3 2.79.62 4.16.97Zm28.86 11.28c-.53.77-.83 1.72-1.09 2.74-.71 2.97-.72 6.34-2 10.13-.14.47-.37.95-.58 1.43-.13.25-.2.47-.35.75-.21.33-.43.66-.67.97-.96 1.12-1.98 1.76-2.93 2.32-1.9 1.04-3.69 1.59-5.43 2.11-3.47.97-6.82 1.54-10.09 2.17-3.25.59-6.43 1.21-9.31 2.08-1.43.43-2.75.97-3.87 1.58-.27.15-.51.33-.76.49-.2.18-.47.33-.63.52-.42.35-.67.66-.97 1.24-.67 1.02-.93 2.17-.99 3.47-.08 1.29.23 2.73.77 4.14.53 1.47 1.28 2.91 2.15 4.32-1.91-1.31-3.98-2.62-6.24-3.83h-.01c-.21-.38-.42-.77-.63-1.16-.39-.91-.78-1.86-.96-2.89-.44-2.03-.34-4.38.47-6.41.3-1 .91-2.16 1.64-3.06.34-.49.76-.86 1.15-1.28.4-.37.82-.73 1.25-1.05 1.69-1.29 3.47-2.14 5.22-2.84 3.5-1.39 6.95-2.14 10.32-2.79l5-.87c1.64-.25 3.25-.53 4.79-.83 1.53-.29 3.01-.68 4.16-1.11.54-.21.99-.47 1.17-.59.03-.03.05-.04.1-.04.06-.09.16-.25.25-.37.18-.27.37-.52.52-.85 1.39-2.44 2.2-5.89 4.03-9.2.24-.42.47-.82.78-1.23.3-.4.56-.81.96-1.16.1-.1.2-.2.3-.29.85.44 1.67.9 2.48 1.36Zm23.65 22.14c-1.05.91-1.83 2.11-2.58 3.28-1.38 2.35-2.49 4.91-3.56 7.54l-1.64 4.02c-.08.21-.44.96-.8 1.49-.38.53-.81 1.02-1.25 1.4-.88.8-1.81 1.36-2.68 1.77-3.51 1.6-6.62 1.9-9.68 2.25-3.03.28-5.98.37-8.79.51-1.4.05-2.78.15-4.06.29-1.26.14-2.5.37-3.23.66-.64.25-1.09.54-1.47 1.47-.34.9-.47 2.17-.39 3.5.1 2.01.51 4.12 1.02 6.27-.61-.16-1.15-.35-1.64-.57-.13-.05-.25-.11-.38-.19-.13-.16-.25-.33-.37-.51-.88-1.28-1.64-2.64-2.25-4.17-.58-1.52-1.02-3.22-.88-5.22.08-1 .37-2.08.94-3.1.56-1.01 1.4-1.91 2.31-2.54 1.81-1.23 3.46-1.72 5.07-2.15 1.59-.43 3.15-.67 4.65-.9 3.03-.42 5.95-.61 8.76-.9 1.4-.13 2.77-.27 4.06-.48 1.29-.18 2.51-.45 3.44-.8.48-.16.83-.35 1.07-.51.13-.06.19-.14.27-.18.06-.08.06.04.32-.4a90.38 90.38 0 0 1 2.36-3.83c1.68-2.53 3.56-5.04 5.99-7.18 1.25-1.04 2.63-2.01 4.22-2.55.08-.03.15-.05.23-.06.35.59.67 1.17.96 1.77Zm-110.53-35.66c-.33 1.04-.56 2.15-.77 3.28-.27 1.3-.51 2.64-.91 4.08-.21.72-.47 1.47-.88 2.29-.24.42-.43.82-.83 1.29-.16.21-.39.49-.53.62l-.47.44c-1.18 1.09-2.19 1.91-3.26 2.77l-3.12 2.5c-2.06 1.63-4.08 3.25-5.98 4.91-1.9 1.66-3.66 3.39-5.13 5.15l-1.01 1.35c-.25.45-.61.91-.83 1.35-.39.82-.8 1.69-.9 2.7-.21 1-.13 2.1-.04 3.25.19 1.14.42 2.35.83 3.54.43 1.36.99 2.72 1.62 4.09-.82.1-1.63.21-2.43.32-.88-.78-1.69-1.67-2.44-2.64-.92-1.15-1.68-2.48-2.34-3.89-.58-1.47-1.09-3.04-1.15-4.76-.16-1.71.14-3.49.68-5.18.29-.81.63-1.52.97-2.27.39-.69.8-1.38 1.21-2.05 1.72-2.6 3.79-4.73 5.94-6.65 2.17-1.9 4.45-3.56 6.78-5.08 1.17-.75 2.34-1.48 3.52-2.15l3.35-1.93.32-.19c.13-.08.1-.08.18-.11.09 0 .24-.19.38-.32.32-.33.63-.82.96-1.33.64-1.05 1.3-2.26 2.02-3.47.29-.47.58-.95.91-1.42 1.07-.18 2.19-.35 3.34-.51Zm-18.35 4.07c-.3.52-.58 1.09-.83 1.64-.59 1.28-1.18 2.56-1.81 3.85-1.29 2.56-2.72 5.15-4.76 7.57-.51.61-1.06 1.2-1.68 1.77-.28.28-.66.58-.92.81l-.8.67c-1.09.87-2.12 1.79-3.2 2.65-2.12 1.77-4.25 3.52-6.29 5.28-2.05 1.77-4.04 3.58-5.84 5.42-.45.45-.9.92-1.3 1.4-.44.45-.81.93-1.2 1.41-.72.96-1.4 1.91-1.88 2.88-.09.24-.2.48-.32.72-.08.19-.13.27-.16.43-.08.27-.1.61-.03 1.04.18.86.76 1.93 1.55 2.92.68.88 1.48 1.74 2.35 2.56-1.43.21-2.79.4-4.11.58-.23-.13-.45-.27-.68-.4-1.31-.87-2.64-1.97-3.61-3.69-.48-.86-.85-1.92-.91-3.06-.04-.54.01-1.17.09-1.67.08-.43.16-.87.25-1.31.94-3.39 2.7-6.1 4.61-8.49 1.91-2.39 4.02-4.49 6.2-6.42 2.19-1.95 4.46-3.73 6.8-5.41 1.16-.85 2.36-1.63 3.55-2.43l.9-.59.76-.47c.48-.3.95-.69 1.45-1.06 1.96-1.57 3.9-3.51 5.95-5.48.57-.56 1.16-1.11 1.77-1.66 1.21-.48 2.58-.99 4.09-1.48Z" style="stroke-width:0;fill:#fff"/>
  </g>
</svg>
