<svg xmlns="http://www.w3.org/2000/svg" id="Layer_14" data-name="Layer 14" viewBox="0 0 1670 426">
  <defs>
    <style>
      .cls-5,.cls-6,.cls-9{stroke-miterlimit:10;stroke:#000;stroke-width:6px}.cls-11{fill:#000}.cls-12{fill:#f4efdc}.cls-11,.cls-12,.cls-15,.cls-16{stroke-width:0}.cls-15,.cls-5{fill:#e48341}.cls-6{fill:#7ee074}.cls-9{fill:#497bed}.cls-16{fill:#fff}
    </style>
  </defs>
  <rect width="1466.29" height="374.79" x="20.14" y="32.7" rx="10.53" ry="10.53" style="fill:#000;stroke:#000;stroke-width:6px;stroke-miterlimit:10"/>
  <rect width="1458" height="374.4" x="17.14" y="15.51" rx="13.39" ry="13.39" style="fill:#efe8cb;stroke-width:0"/>
  <path d="M1461.75 18.51c5.74 0 10.39 4.65 10.39 10.39v347.62c0 5.74-4.65 10.39-10.39 10.39H30.52c-5.74 0-10.39-4.65-10.39-10.39V28.9c0-5.74 4.65-10.39 10.39-10.39h1431.23m0-6H30.52c-9.04 0-16.39 7.35-16.39 16.39v347.62c0 9.04 7.35 16.39 16.39 16.39h1431.23c9.04 0 16.39-7.35 16.39-16.39V28.9c0-9.04-7.35-16.39-16.39-16.39Z" class="cls-11"/>
  <path d="M20.14 72.74h1452v15.07h-1452zm0 253.58h1452v15.07h-1452z" class="cls-12"/>
  <path d="M32.64 18.51H47.7v368.4H32.64zm30.02 0h15.06v368.4H62.66zm30.02 0h15.06v368.4H92.68zm30.02 0h15.06v368.4H122.7zm30.01 0h15.06v368.4h-15.06zm30.02 0h15.06v368.4h-15.06zm30.02 0h15.06v368.4h-15.06zm30.02 0h15.06v368.4h-15.06zm30.02 0h15.06v368.4h-15.06zm30.02 0h15.06v368.4h-15.06zm30.02 0h15.06v368.4h-15.06zm30.02 0h15.06v368.4h-15.06zm30.02 0h15.06v368.4h-15.06zm30.01 0h15.06v368.4h-15.06zm30.02 0h15.06v368.4H452.9zm30.02 0h15.06v368.4h-15.06zm30.02 0H528v368.4h-15.06zm30.02 0h15.06v368.4h-15.06zm30.02 0h15.06v368.4h-15.06zm30.02 0h15.06v368.4H603zm30.02 0h15.06v368.4h-15.06zm30.02 0h15.06v368.4h-15.06zm30.01 0h15.06v368.4h-15.06zm30.02 0h15.06v368.4h-15.06zm31.11 0h15.06v368.4h-15.06zm30.02 0h15.06v368.4H784.2zm30.02 0h15.06v368.4h-15.06zm30.02 0h15.06v368.4h-15.06zm30.02 0h15.06v368.4h-15.06zm30.02 0h15.06v368.4h-15.06zm30.01 0h15.06v368.4h-15.06zm30.02 0h15.06v368.4h-15.06zm30.02 0h15.06v368.4h-15.06zm30.02 0h15.06v368.4h-15.06zm30.02 0h15.06v368.4h-15.06zm30.02 0h15.06v368.4h-15.06zm30.02 0h15.06v368.4h-15.06zm30.02 0h15.06v368.4h-15.06zm30.02 0h15.06v368.4h-15.06zm30.01 0h15.06v368.4h-15.06zm30.02 0h15.06v368.4h-15.06zm30.02 0h15.06v368.4h-15.06zm30.02 0h15.06v368.4h-15.06zm30.02 0h15.06v368.4h-15.06zm30.02 0h15.06v368.4h-15.06zm30.02 0h15.06v368.4h-15.06zm30.02 0h15.06v368.4h-15.06zm30.02 0h15.06v368.4h-15.06z" class="cls-12"/>
  <path d="M448.99 221.78h-83.94c-6.54 0-11.85-5.3-11.85-11.85v-20.92c0-4.02 2.04-7.77 5.42-9.95l41.97-27.08c3.91-2.52 8.93-2.52 12.84 0l41.97 27.08c3.38 2.18 5.42 5.93 5.42 9.95v20.92c0 6.54-5.3 11.85-11.85 11.85Z" class="cls-9"/>
  <path d="M396.45 206.63c-.54 0-.97-.16-1.28-.47-.31-.31-.5-.66-.56-1.03l-4.27-27.29s0-.06-.02-.09a.31.31 0 0 1-.02-.08c0-.26.09-.48.28-.66s.41-.28.66-.28h6.62c.88 0 1.37.36 1.45 1.07l2.09 14.35 2.43-7.6c.06-.2.19-.45.38-.75.2-.3.54-.45 1.03-.45h3.72c.48 0 .83.15 1.03.45.2.3.34.55.43.75l2.39 7.56 2.14-14.31c.08-.71.56-1.07 1.41-1.07h6.62c.26 0 .48.09.66.28.18.19.28.41.28.66v.08s-.01.06-.04.09l-4.27 27.29c-.03.37-.21.71-.53 1.03-.33.31-.76.47-1.3.47h-5.08c-.51 0-.9-.13-1.15-.41-.26-.27-.43-.5-.51-.7l-3.89-10.51-3.93 10.51c-.06.2-.22.43-.49.7-.27.27-.66.41-1.17.41h-5.08Z" class="cls-11"/>
  <path d="M400.73 243.3v55.74c0 6.54-5.3 11.85-11.85 11.85h-38.29c-2.75 0-5.41-.96-7.54-2.71l-33.79-27.87c-5.75-4.74-5.75-13.54 0-18.28l33.79-27.87c2.12-1.75 4.79-2.71 7.54-2.71h38.29c6.54 0 11.85 5.3 11.85 11.85Z" class="cls-9"/>
  <path d="M347.03 283.83a.87.87 0 0 1-.66-.28.9.9 0 0 1-.28-.66c0-.11.03-.21.08-.3l9.74-27.34c.09-.31.28-.61.58-.9.3-.28.7-.43 1.22-.43h7.82c.54 0 .95.14 1.24.43.28.29.47.58.56.9l9.78 27.34c.03.08.04.19.04.3 0 .26-.09.48-.28.66a.9.9 0 0 1-.66.28h-6.58c-.48 0-.84-.11-1.07-.34-.23-.23-.38-.44-.47-.64l-1.32-3.59h-10.29l-1.32 3.59c-.09.2-.24.41-.45.64-.21.23-.58.34-1.09.34h-6.58Zm11.4-11.79h6.36l-3.2-9.61-3.16 9.61Z" class="cls-11"/>
  <path d="M413.32 243.3v55.74c0 6.54 5.3 11.85 11.85 11.85h38.29c2.75 0 5.41-.96 7.54-2.71l33.79-27.87c5.75-4.74 5.75-13.54 0-18.28L471 234.16a11.854 11.854 0 0 0-7.54-2.71h-38.29c-6.54 0-11.85 5.3-11.85 11.85Z" class="cls-9"/>
  <path d="M442.16 283.83c-.28 0-.54-.11-.77-.32a1.03 1.03 0 0 1-.34-.79v-27.68c0-.31.11-.58.34-.79.23-.21.48-.32.77-.32h11.7c2.76 0 5.15.45 7.18 1.34 2.02.9 3.62 2.21 4.78 3.95 1.17 1.74 1.79 3.87 1.88 6.41.06 1.23.09 2.31.09 3.25s-.03 2.01-.09 3.2c-.11 2.68-.72 4.88-1.82 6.62-1.1 1.74-2.64 3.03-4.63 3.87-1.99.84-4.39 1.26-7.18 1.26h-11.92Zm8.07-7.26h3.63c.94 0 1.74-.16 2.39-.47.65-.31 1.17-.8 1.54-1.47.37-.67.57-1.53.6-2.58.03-.83.05-1.57.06-2.22.01-.65.01-1.31 0-1.96-.02-.65-.04-1.38-.06-2.18-.06-1.57-.51-2.71-1.35-3.42s-1.97-1.07-3.4-1.07h-3.42v15.38Z" class="cls-11"/>
  <path d="M1127.22 221.78h-83.94c-6.54 0-11.85-5.3-11.85-11.85v-20.92c0-4.02 2.04-7.77 5.42-9.95l41.97-27.08c3.91-2.52 8.93-2.52 12.84 0l41.97 27.08c3.38 2.18 5.42 5.93 5.42 9.95v20.92c0 6.54-5.3 11.85-11.85 11.85Z" class="cls-9"/>
  <path d="M1081.62 206.63c-.29 0-.54-.11-.77-.32a1.03 1.03 0 0 1-.34-.79v-27.68c0-.31.11-.58.34-.79.23-.21.48-.32.77-.32h7.26c.31 0 .58.11.79.32.21.21.32.48.32.79v27.68c0 .31-.11.58-.32.79s-.48.32-.79.32h-7.26Z" class="cls-11"/>
  <path d="M1078.96 243.3v55.74c0 6.54-5.3 11.85-11.85 11.85h-38.29c-2.75 0-5.41-.96-7.54-2.71l-33.79-27.87c-5.75-4.74-5.75-13.54 0-18.28l33.79-27.87c2.12-1.75 4.79-2.71 7.54-2.71h38.29c6.54 0 11.85 5.3 11.85 11.85Z" class="cls-9"/>
  <path d="M1038.33 284.25c-1.71 0-3.33-.22-4.87-.66-1.54-.44-2.91-1.09-4.12-1.94s-2.16-1.91-2.86-3.16c-.7-1.25-1.06-2.71-1.09-4.36 0-.26.09-.48.26-.66.17-.18.38-.28.64-.28h7.26c.46 0 .79.1 1 .3.21.2.41.53.58.98.2.57.45 1.05.75 1.43s.68.66 1.13.83c.46.17.98.26 1.58.26 1.11 0 1.97-.36 2.58-1.07.61-.71.92-1.84.92-3.38v-11.11h-13.28c-.31 0-.58-.11-.79-.32-.21-.21-.32-.48-.32-.79v-5.3c0-.31.11-.58.32-.79s.48-.32.79-.32h21.66c.31 0 .58.11.79.32.21.21.32.48.32.79v17.81c0 2.53-.58 4.65-1.73 6.34-1.15 1.69-2.73 2.96-4.74 3.8-2.01.84-4.27 1.26-6.77 1.26Z" class="cls-11"/>
  <path d="M1091.55 243.3v55.74c0 6.54 5.3 11.85 11.85 11.85h38.29c2.75 0 5.41-.96 7.54-2.71l33.79-27.87c5.75-4.74 5.75-13.54 0-18.28l-33.79-27.87a11.854 11.854 0 0 0-7.54-2.71h-38.29c-6.54 0-11.85 5.3-11.85 11.85Z" class="cls-9"/>
  <path d="M1123.36 283.83c-.28 0-.54-.11-.77-.32a1.03 1.03 0 0 1-.34-.79v-27.68c0-.31.11-.58.34-.79.23-.21.48-.32.77-.32h7.09c.31 0 .58.11.81.32.23.21.34.48.34.79v21.19h12.34c.31 0 .58.11.81.32.23.21.34.48.34.79v5.38c0 .31-.11.58-.34.79-.23.21-.5.32-.81.32h-20.59Z" class="cls-11"/>
  <path d="M461.02 152.67c-2.56 0-4.82-.26-6.72-.76-.74-.2-1.41-.43-2.03-.7a4.88 4.88 0 0 1-.65-.32c-2.74-1.38-5.5-3.84-8.69-6.68-3.06-2.74-6.53-5.83-10.87-8.83a65.794 65.794 0 0 0-5.3-3.3l-.68-.37c-4.64-2.53-9.48-4.42-14.79-5.77h-.03l-.4-.11c-.32-.09-.62-.17-.94-.24l-.21-.05c-4.13-.96-8.59-1.59-13.25-1.89-2.36-.15-4.86-.22-7.42-.22-2.77 0-5.72.09-8.76.26-.87.04-1.7.09-2.54.15-4.83.34-10.03.88-15.89 1.66-.48.06-2.45.32-2.45.32-4.48.62-8.76 1.29-12.9 1.94-2.77.43-5.4.85-7.88 1.21-1.43.22-2.81.41-4.14.59-4.25.55-7.39.81-9.89.81h-.02c-2.26 0-9.04-.02-10.03-5.32-.57-3.09.53-8.84 16.59-23.18 8.49-7.58 17.92-14.61 20.03-15.76l.78-.45c1.53-.89 4.09-2.39 8.16-4a69.41 69.41 0 0 1 4.28-1.54c4.53-1.5 9.74-2.74 15.47-3.67 1.1-.18 2.24-.36 3.43-.52 7.12-.98 15.01-1.54 23.44-1.64.89-.01 1.8-.03 2.73-.03h.88c9.39.04 18.74 1.04 27.83 2.97 1.61.35 2.92.65 4.1.96l.17.04c9.76 2.41 18.86 5.84 27.05 10.18.87.45 1.73.93 2.57 1.42 11.01 6.23 19.24 13.66 23.78 21.45.38.64.74 1.29 1.06 1.96 2.12 4.25 3.02 8.46 2.66 12.48-1.69 18.58-23.54 26.94-38.51 26.94Z" class="cls-15"/>
  <path d="M410.31 77.27c9.53.04 18.66 1.09 27.2 2.91 1.4.3 2.79.62 4.16.97h.01c9.8 2.43 18.71 5.86 26.37 9.92.85.44 1.67.9 2.48 1.36 10.57 5.99 18.5 13.16 22.69 20.37.35.59.67 1.18.96 1.77 1.84 3.7 2.68 7.38 2.36 10.89-1.55 16.97-22.56 24.21-35.52 24.21-2.28 0-4.31-.22-5.95-.66-.61-.16-1.15-.35-1.64-.57-.13-.05-.25-.11-.38-.19-4.78-2.35-10.21-9.08-19.28-15.34-1.91-1.31-3.98-2.62-6.24-3.83h-.01c-4.47-2.44-9.68-4.6-15.86-6.14h-.01c-.42-.11-.82-.21-1.25-.32h-.01c-4.13-.96-8.7-1.64-13.75-1.96-2.52-.16-5.06-.23-7.61-.23-2.97 0-5.95.1-8.93.27-.86.04-1.72.09-2.59.15-5.46.38-10.87.99-16.07 1.68-.82.1-1.63.21-2.43.32-7.62 1.06-14.72 2.26-20.83 3.16-1.43.21-2.79.4-4.11.58-3.69.48-6.9.78-9.49.78-4.16 0-6.71-.78-7.1-2.87-1.59-8.62 31.6-33.83 35.11-35.75 1.29-.71 3.88-2.41 8.6-4.3 1.21-.48 2.58-.99 4.09-1.48 3.89-1.29 8.82-2.55 15.02-3.56 1.07-.18 2.19-.35 3.34-.51 6.41-.88 14.02-1.5 23.08-1.62.88-.01 1.78-.03 2.69-.03h.88m.04-5.98h-.9c-.94 0-1.86.01-2.78.03-8.54.11-16.55.67-23.82 1.67-1.24.16-2.46.36-3.49.53-5.87.96-11.23 2.23-15.93 3.79-1.44.47-2.89.99-4.42 1.6-4.29 1.71-6.97 3.27-8.57 4.21-.28.16-.51.3-.71.41-2.58 1.41-12.36 8.82-20.58 16.15-16.9 15.09-18.35 21.59-17.55 25.95.66 3.55 3.45 7.78 13 7.78 2.63 0 5.89-.26 10.26-.83 1.37-.18 2.77-.38 4.23-.6 2.48-.36 5.11-.77 7.89-1.21 4.11-.64 8.36-1.31 12.84-1.93.34-.04.69-.09 1.04-.14.44-.06.88-.12 1.33-.17h.06c5.8-.77 10.93-1.31 15.69-1.64.85-.06 1.64-.11 2.44-.14h.08c2.99-.17 5.88-.26 8.59-.26 2.5 0 4.93.07 7.23.22 4.5.28 8.8.89 12.76 1.81l.38.09c.22.05.44.11.66.17l.78.21h.06c4.92 1.28 9.42 3.06 13.74 5.41l1.16.63c1.5.85 3.01 1.8 4.56 2.87 4.18 2.88 7.58 5.92 10.57 8.59 3.32 2.97 6.2 5.54 9.28 7.1.29.16.58.3.88.43.75.32 1.55.6 2.4.83 2.17.58 4.69.87 7.52.87 16.11 0 39.63-9.2 41.49-29.66.41-4.59-.59-9.33-2.97-14.11-.34-.69-.72-1.4-1.16-2.14-4.81-8.24-13.41-16.03-24.88-22.53-.92-.53-1.8-1.02-2.68-1.48-8.38-4.44-17.71-7.95-27.7-10.42l-.33-.08c-1.16-.29-2.41-.59-4.01-.93-9.3-1.98-18.87-3-28.45-3.04h-.01Z" class="cls-11"/>
  <path d="M410.31 77.27c-.13.13-.21.24-.32.37-.82 1.04-1.41 2.21-1.95 3.44-1.07 2.45-1.74 5.12-3.2 8.06-.18.37-.38.75-.62 1.12-.23.38-.47.76-.78 1.15-.29.39-.62.76-.96 1.09l-.52.51-.49.42c-1.33 1.14-2.62 1.95-3.88 2.74-2.53 1.59-5.02 2.93-7.38 4.33-2.39 1.38-4.65 2.79-6.68 4.33-.52.38-.97.78-1.47 1.19l-.67.62c-.2.2-.51.43-.61.58-.27.34-.63.64-.81 1.06-.11.2-.28.38-.37.61l-.27.71c-.72 1.93-.54 4.6-.13 7.25.23 1.28.52 2.56.87 3.87-.86.04-1.72.09-2.59.15-.64-.87-1.21-1.79-1.76-2.75-.72-1.38-1.39-2.82-1.79-4.43-.27-.77-.32-1.66-.47-2.5-.03-.43-.03-.88-.04-1.33-.01-.45-.03-.9.08-1.36l.23-1.4c.09-.47.28-.92.44-1.39.28-.95.85-1.76 1.38-2.62.28-.45.53-.69.8-1.05l.8-.95c.57-.57 1.14-1.17 1.72-1.71 2.36-2.17 4.93-3.89 7.5-5.42 2.58-1.5 5.19-2.79 7.67-4.04 1.23-.61 2.43-1.24 3.4-1.83l.37-.23.29-.2c.21-.13.39-.29.56-.44.19-.13.37-.33.56-.54.19-.18.38-.42.57-.67 1.54-1.95 3.03-4.65 5.15-6.99.54-.59 1.14-1.17 1.78-1.71.88-.01 1.78-.03 2.69-.03h.88Zm31.36 3.88c-.59.52-1.12 1.09-1.58 1.73-1.77 2.24-2.96 4.99-4.65 7.91-.86 1.44-1.78 2.98-3.22 4.42-1.47 1.53-3.28 2.56-4.89 3.36-3.26 1.5-6.41 2.4-9.43 3.34-2.99.9-5.91 1.77-8.46 2.88-1.24.57-2.43 1.2-3.36 1.9-.28.16-.43.38-.66.56-.21.19-.44.39-.53.49-.24.25-.42.48-.53.83-.09.34-.15.81-.1 1.35.04.54.21 1.16.4 1.79.43 1.26 1.09 2.59 1.87 3.89 1.45 2.49 3.23 4.89 5.12 7.34-.42-.11-.82-.21-1.25-.32h-.01c-.93-.48-1.84-1.02-2.73-1.59-1.4-.9-2.73-1.92-3.99-3.07-1.25-1.16-2.44-2.46-3.45-4.06-.97-1.57-1.87-3.56-1.74-6.06.06-1.25.49-2.54 1.14-3.61.33-.59.66-.96.99-1.35.34-.39.66-.83 1.02-1.15 1.43-1.45 3.03-2.44 4.61-3.35 3.18-1.72 6.39-2.77 9.49-3.73 3.1-.93 6.13-1.73 8.76-2.69 1.31-.49 2.32-1.01 3.21-1.67.93-.69 1.9-1.78 2.88-2.93 1.96-2.27 3.99-5.12 6.95-7.19 1.4.3 2.79.62 4.16.97Zm28.86 11.28c-.53.77-.83 1.72-1.09 2.74-.71 2.97-.72 6.34-2 10.13-.14.47-.37.95-.58 1.43-.13.25-.2.47-.35.75-.21.33-.43.66-.67.97-.96 1.12-1.98 1.76-2.93 2.32-1.9 1.04-3.69 1.59-5.43 2.11-3.47.97-6.82 1.54-10.09 2.17-3.25.59-6.43 1.21-9.31 2.08-1.43.43-2.75.97-3.87 1.58-.27.15-.51.33-.76.49-.2.18-.47.33-.63.52-.42.35-.67.66-.97 1.24-.67 1.02-.93 2.17-.99 3.47-.08 1.29.23 2.73.77 4.14.53 1.47 1.28 2.91 2.15 4.32-1.91-1.31-3.98-2.62-6.24-3.83h-.01c-.21-.38-.42-.77-.63-1.16-.39-.91-.78-1.86-.96-2.89-.44-2.03-.34-4.38.47-6.41.3-1 .91-2.16 1.64-3.06.34-.49.76-.86 1.15-1.28.4-.37.82-.73 1.25-1.05 1.69-1.29 3.47-2.14 5.22-2.84 3.5-1.39 6.95-2.14 10.32-2.79l5-.87c1.64-.25 3.25-.53 4.79-.83 1.53-.29 3.01-.68 4.16-1.11.54-.21.99-.47 1.17-.59.03-.03.05-.04.1-.04.06-.09.16-.25.25-.37.18-.27.37-.52.52-.85 1.39-2.44 2.2-5.89 4.03-9.2.24-.42.47-.82.78-1.23.3-.4.56-.81.96-1.16.1-.1.2-.2.3-.29.85.44 1.67.9 2.48 1.36Zm23.65 22.14c-1.05.91-1.83 2.11-2.58 3.28-1.38 2.35-2.49 4.91-3.56 7.54l-1.64 4.02c-.08.21-.44.96-.8 1.49-.38.53-.81 1.02-1.25 1.4-.88.8-1.81 1.36-2.68 1.77-3.51 1.6-6.62 1.9-9.68 2.25-3.03.28-5.98.37-8.79.51-1.4.05-2.78.15-4.06.29-1.26.14-2.5.37-3.23.66-.64.25-1.09.54-1.47 1.47-.34.9-.47 2.17-.39 3.5.1 2.01.51 4.12 1.02 6.27-.61-.16-1.15-.35-1.64-.57-.13-.05-.25-.11-.38-.19-.13-.16-.25-.33-.37-.51-.88-1.28-1.64-2.64-2.25-4.17-.58-1.52-1.02-3.22-.88-5.22.08-1 .37-2.08.94-3.1.56-1.01 1.4-1.91 2.31-2.54 1.81-1.23 3.46-1.72 5.07-2.15 1.59-.43 3.15-.67 4.65-.9 3.03-.42 5.95-.61 8.76-.9 1.4-.13 2.77-.27 4.06-.48 1.29-.18 2.51-.45 3.44-.8.48-.16.83-.35 1.07-.51.13-.06.19-.14.27-.18.06-.08.06.04.32-.4a90.38 90.38 0 0 1 2.36-3.83c1.68-2.53 3.56-5.04 5.99-7.18 1.25-1.04 2.63-2.01 4.22-2.55.08-.03.15-.05.23-.06.35.59.67 1.17.96 1.77ZM383.66 78.91c-.33 1.04-.56 2.15-.77 3.28-.27 1.3-.51 2.64-.91 4.08-.21.72-.47 1.47-.88 2.29-.24.42-.43.82-.83 1.29-.16.21-.39.49-.53.62l-.47.44c-1.18 1.09-2.19 1.91-3.26 2.77l-3.12 2.5c-2.06 1.63-4.08 3.25-5.98 4.91-1.9 1.66-3.66 3.39-5.13 5.15l-1.01 1.35c-.25.45-.61.91-.83 1.35-.39.82-.8 1.69-.9 2.7-.21 1-.13 2.1-.04 3.25.19 1.14.42 2.35.83 3.54.43 1.36.99 2.72 1.62 4.09-.82.1-1.63.21-2.43.32-.88-.78-1.69-1.67-2.44-2.64-.92-1.15-1.68-2.48-2.34-3.89-.58-1.47-1.09-3.04-1.15-4.76-.16-1.71.14-3.49.68-5.18.29-.81.63-1.52.97-2.27.39-.69.8-1.38 1.21-2.05 1.72-2.6 3.79-4.73 5.94-6.65 2.17-1.9 4.45-3.56 6.78-5.08 1.17-.75 2.34-1.48 3.52-2.15l3.35-1.93.32-.19c.13-.08.1-.08.18-.11.09 0 .24-.19.38-.32.32-.33.63-.82.96-1.33.64-1.05 1.3-2.26 2.02-3.47.29-.47.58-.95.91-1.42 1.07-.18 2.19-.35 3.34-.51Zm-18.36 4.07c-.3.52-.58 1.09-.83 1.64-.59 1.28-1.18 2.56-1.81 3.85-1.29 2.56-2.72 5.15-4.76 7.57-.51.61-1.06 1.2-1.68 1.77-.28.28-.66.58-.92.81l-.8.67c-1.09.87-2.12 1.79-3.2 2.65-2.12 1.77-4.25 3.52-6.29 5.28-2.05 1.77-4.04 3.58-5.84 5.42-.45.45-.9.92-1.3 1.4-.44.45-.81.93-1.2 1.41-.72.96-1.4 1.91-1.88 2.88-.09.24-.2.48-.32.72-.08.19-.13.27-.16.43-.08.27-.1.61-.03 1.04.18.86.76 1.93 1.55 2.92.68.88 1.48 1.74 2.35 2.56-1.43.21-2.79.4-4.11.58-.23-.13-.45-.27-.68-.4-1.31-.87-2.64-1.97-3.61-3.69-.48-.86-.85-1.92-.91-3.06-.04-.54.01-1.17.09-1.67.08-.43.16-.87.25-1.31.94-3.39 2.7-6.1 4.61-8.49 1.91-2.39 4.02-4.49 6.2-6.42 2.19-1.95 4.46-3.73 6.8-5.41 1.16-.85 2.36-1.63 3.55-2.43l.9-.59.76-.47c.48-.3.95-.69 1.45-1.06 1.96-1.57 3.9-3.51 5.95-5.48.57-.56 1.16-1.11 1.77-1.66 1.21-.48 2.58-.99 4.09-1.48Z" class="cls-16" style="opacity:.5"/>
  <path d="M957.72 263.24c-4.83-4.9-35.01-27-40.16-28.29-5.14-1.29-29.38-5.14-53.62 0s-52.4 21.43-55.83 26.15c-3.43 4.71-2.2 23.51-.98 24.61 1.22 1.11 40.5 25.11 47.06 24.25 6.56-.86 39.13-20.57 57.49-21 18.36-.43 44.32 4.29 46.03 1.29 1.71-3 3.32-23.63 0-27Z" style="fill:#e7b03d;stroke:#000;stroke-width:6px;stroke-miterlimit:10"/>
  <path d="M950.1 271.17s-33.64-10.74-44.11-8.91c-10.48 1.83-48.11 23.48-51.95 23.18-3.83-.31-36.48-12.24-38.68-16.44" style="stroke-linejoin:round;stroke-width:4px;fill:none;stroke-linecap:round;stroke:#efd34a"/>
  <path d="M1014.52 100.46c.14 5.98-4.6 10.94-10.58 11.08-5.98.14-10.94-4.6-11.08-10.58-.14-5.98 4.6-10.94 10.58-11.08s10.94 4.6 11.08 10.58Z" class="cls-5"/>
  <path d="M1010.92 96.64a4.384 4.384 0 0 1-4.29 4.49 4.384 4.384 0 0 1-4.49-4.29 4.384 4.384 0 0 1 4.29-4.49 4.384 4.384 0 0 1 4.49 4.29Z" class="cls-16"/>
  <path d="M1041.22 98.01c.14 5.98-4.6 10.94-10.58 11.08-5.98.14-10.94-4.6-11.08-10.58-.14-5.98 4.6-10.94 10.58-11.08 5.98-.14 10.94 4.6 11.08 10.58Z" class="cls-5"/>
  <path d="M1037.61 94.2a4.384 4.384 0 0 1-4.29 4.49 4.384 4.384 0 0 1-4.49-4.29 4.384 4.384 0 0 1 4.29-4.49 4.384 4.384 0 0 1 4.49 4.29Z" class="cls-16"/>
  <path d="M1078.94 120.91c.14 5.98-4.6 10.94-10.58 11.08-5.98.14-10.94-4.6-11.08-10.58-.14-5.98 4.6-10.94 10.58-11.08 5.98-.14 10.94 4.6 11.08 10.58Z" class="cls-5"/>
  <path d="M1075.34 117.09c.06 2.42-1.86 4.44-4.29 4.49s-4.44-1.86-4.49-4.29a4.384 4.384 0 0 1 4.29-4.49 4.384 4.384 0 0 1 4.49 4.29Z" class="cls-16"/>
  <path d="M1026.84 111c.14 5.98-4.6 10.94-10.58 11.08-5.98.14-10.94-4.6-11.08-10.58-.14-5.98 4.6-10.94 10.58-11.08 5.98-.14 10.94 4.6 11.08 10.58Z" class="cls-5"/>
  <path d="M1023.24 107.19a4.384 4.384 0 0 1-4.29 4.49 4.384 4.384 0 0 1-4.49-4.29 4.384 4.384 0 0 1 4.29-4.49 4.384 4.384 0 0 1 4.49 4.29Z" class="cls-16"/>
  <path d="M1045.11 115.59c.14 5.98-4.6 10.94-10.58 11.08-5.98.14-10.94-4.6-11.08-10.58-.14-5.98 4.6-10.94 10.58-11.08s10.94 4.6 11.08 10.58Z" class="cls-5"/>
  <path d="M1041.51 111.78a4.384 4.384 0 0 1-4.29 4.49 4.384 4.384 0 0 1-4.49-4.29 4.384 4.384 0 0 1 4.29-4.49 4.384 4.384 0 0 1 4.49 4.29Z" class="cls-16"/>
  <path d="M1115.18 92.87c.14 5.98-4.6 10.94-10.58 11.08-5.98.14-10.94-4.6-11.08-10.58-.14-5.98 4.6-10.94 10.58-11.08 5.98-.14 10.94 4.6 11.08 10.58Z" class="cls-5"/>
  <path d="M1111.58 89.06c.06 2.42-1.86 4.44-4.29 4.49s-4.44-1.86-4.49-4.29a4.384 4.384 0 0 1 4.29-4.49 4.384 4.384 0 0 1 4.49 4.29Z" class="cls-16"/>
  <path d="M1120.01 85.24c.14 5.98-4.6 10.94-10.58 11.08-5.98.14-10.94-4.6-11.08-10.58-.14-5.98 4.6-10.94 10.58-11.08 5.98-.14 10.94 4.6 11.08 10.58Z" class="cls-5"/>
  <path d="M1116.41 81.43a4.384 4.384 0 0 1-4.29 4.49 4.384 4.384 0 0 1-4.49-4.29c-.06-2.42 1.86-4.44 4.29-4.49s4.44 1.86 4.49 4.29Z" class="cls-16"/>
  <path d="M1145.78 100.77c.14 5.98-4.6 10.94-10.58 11.08-5.98.14-10.94-4.6-11.08-10.58-.14-5.98 4.6-10.94 10.58-11.08 5.98-.14 10.94 4.6 11.08 10.58Z" class="cls-5"/>
  <path d="M1142.18 96.96a4.384 4.384 0 0 1-4.29 4.49 4.384 4.384 0 0 1-4.49-4.29 4.384 4.384 0 0 1 4.29-4.49 4.384 4.384 0 0 1 4.49 4.29Z" class="cls-16"/>
  <path d="M1101.46 94.37c.14 5.98-4.6 10.94-10.58 11.08-5.98.14-10.94-4.6-11.08-10.58-.14-5.98 4.6-10.94 10.58-11.08 5.98-.14 10.94 4.6 11.08 10.58Z" class="cls-5"/>
  <path d="M1097.86 90.56a4.384 4.384 0 0 1-4.29 4.49 4.384 4.384 0 0 1-4.49-4.29 4.384 4.384 0 0 1 4.29-4.49 4.384 4.384 0 0 1 4.49 4.29Z" class="cls-16"/>
  <path d="M1064.6 119.03c.14 5.98-4.6 10.94-10.58 11.08s-10.94-4.6-11.08-10.58c-.14-5.98 4.6-10.94 10.58-11.08 5.98-.14 10.94 4.6 11.08 10.58Z" class="cls-5"/>
  <path d="M1060.99 115.22a4.384 4.384 0 0 1-4.29 4.49 4.384 4.384 0 0 1-4.49-4.29c-.06-2.42 1.86-4.44 4.29-4.49s4.44 1.86 4.49 4.29Z" class="cls-16"/>
  <path d="M1075.7 102.92c.14 5.98-4.6 10.94-10.58 11.08-5.98.14-10.94-4.6-11.08-10.58-.14-5.98 4.6-10.94 10.58-11.08 5.98-.14 10.94 4.6 11.08 10.58Z" class="cls-5"/>
  <path d="M1072.09 99.11a4.384 4.384 0 0 1-4.29 4.49 4.384 4.384 0 0 1-4.49-4.29 4.384 4.384 0 0 1 4.29-4.49 4.384 4.384 0 0 1 4.49 4.29Z" class="cls-16"/>
  <path d="M1074.58 82.4c.14 5.98-4.6 10.94-10.58 11.08s-10.94-4.6-11.08-10.58c-.14-5.98 4.6-10.94 10.58-11.08 5.98-.14 10.94 4.6 11.08 10.58Z" class="cls-5"/>
  <path d="M1070.98 78.59a4.384 4.384 0 0 1-4.29 4.49c-2.42.06-4.44-1.86-4.49-4.29s1.86-4.44 4.29-4.49a4.384 4.384 0 0 1 4.49 4.29Z" class="cls-16"/>
  <path d="M1029.31 91.25c.14 5.98-4.6 10.94-10.58 11.08-5.98.14-10.94-4.6-11.08-10.58-.14-5.98 4.6-10.94 10.58-11.08 5.98-.14 10.94 4.6 11.08 10.58Z" class="cls-5"/>
  <path d="M1025.71 87.43a4.384 4.384 0 0 1-4.29 4.49 4.384 4.384 0 0 1-4.49-4.29 4.384 4.384 0 0 1 4.29-4.49 4.384 4.384 0 0 1 4.49 4.29Z" class="cls-16"/>
  <path d="M1061.06 74.05c.14 5.98-4.6 10.94-10.58 11.08-5.98.14-10.94-4.6-11.08-10.58-.14-5.98 4.6-10.94 10.58-11.08 5.98-.14 10.94 4.6 11.08 10.58Z" class="cls-5"/>
  <path d="M1057.46 70.24a4.384 4.384 0 0 1-4.29 4.49 4.384 4.384 0 0 1-4.49-4.29 4.384 4.384 0 0 1 4.29-4.49 4.384 4.384 0 0 1 4.49 4.29Z" class="cls-16"/>
  <path d="M1048.48 85.27c.14 5.98-4.6 10.94-10.58 11.08-5.98.14-10.94-4.6-11.08-10.58-.14-5.98 4.6-10.94 10.58-11.08 5.98-.14 10.94 4.6 11.08 10.58Z" class="cls-5"/>
  <path d="M1044.88 81.46a4.384 4.384 0 0 1-4.29 4.49 4.384 4.384 0 0 1-4.49-4.29 4.384 4.384 0 0 1 4.29-4.49 4.384 4.384 0 0 1 4.49 4.29Z" class="cls-16"/>
  <path d="M1134.28 97.15c.14 5.98-4.6 10.94-10.58 11.08s-10.94-4.6-11.08-10.58 4.6-10.94 10.58-11.08c5.98-.14 10.94 4.6 11.08 10.58Z" class="cls-5"/>
  <path d="M1130.68 93.34a4.384 4.384 0 0 1-4.29 4.49 4.384 4.384 0 0 1-4.49-4.29c-.06-2.42 1.86-4.44 4.29-4.49s4.44 1.86 4.49 4.29Z" class="cls-16"/>
  <path d="M1085.65 92.48c.14 5.98-4.6 10.94-10.58 11.08-5.98.14-10.94-4.6-11.08-10.58-.14-5.98 4.6-10.94 10.58-11.08 5.98-.14 10.94 4.6 11.08 10.58Z" class="cls-5"/>
  <path d="M1082.04 88.67a4.384 4.384 0 0 1-4.29 4.49 4.384 4.384 0 0 1-4.49-4.29 4.384 4.384 0 0 1 4.29-4.49 4.384 4.384 0 0 1 4.49 4.29Z" class="cls-16"/>
  <path d="M1107.75 111.09c.14 5.98-4.6 10.94-10.58 11.08-5.98.14-10.94-4.6-11.08-10.58-.14-5.98 4.6-10.94 10.58-11.08 5.98-.14 10.94 4.6 11.08 10.58Z" class="cls-5"/>
  <path d="M1104.14 107.28a4.384 4.384 0 0 1-4.29 4.49 4.384 4.384 0 0 1-4.49-4.29 4.384 4.384 0 0 1 4.29-4.49 4.384 4.384 0 0 1 4.49 4.29Z" class="cls-16"/>
  <path d="M1159.86 114.32c.14 5.98-4.6 10.94-10.58 11.08-5.98.14-10.94-4.6-11.08-10.58-.14-5.98 4.6-10.94 10.58-11.08 5.98-.14 10.94 4.6 11.08 10.58Z" class="cls-5"/>
  <path d="M1156.26 110.51a4.384 4.384 0 0 1-4.29 4.49 4.384 4.384 0 0 1-4.49-4.29 4.384 4.384 0 0 1 4.29-4.49 4.384 4.384 0 0 1 4.49 4.29Z" class="cls-16"/>
  <path d="M1168.39 98.39c.14 5.98-4.6 10.94-10.58 11.08-5.98.14-10.94-4.6-11.08-10.58-.14-5.98 4.6-10.94 10.58-11.08 5.98-.14 10.94 4.6 11.08 10.58Z" class="cls-5"/>
  <path d="M1164.79 94.58a4.384 4.384 0 0 1-4.29 4.49 4.384 4.384 0 0 1-4.49-4.29 4.384 4.384 0 0 1 4.29-4.49 4.384 4.384 0 0 1 4.49 4.29Z" class="cls-16"/>
  <path d="M1135.03 79.9c.14 5.98-4.6 10.94-10.58 11.08-5.98.14-10.94-4.6-11.08-10.58-.14-5.98 4.6-10.94 10.58-11.08 5.98-.14 10.94 4.6 11.08 10.58Z" class="cls-5"/>
  <path d="M1131.43 76.08a4.384 4.384 0 0 1-4.29 4.49c-2.42.06-4.44-1.86-4.49-4.29s1.86-4.44 4.29-4.49a4.384 4.384 0 0 1 4.49 4.29Z" class="cls-16"/>
  <path d="M1152.92 92.84c.14 5.98-4.6 10.94-10.58 11.08-5.98.14-10.94-4.6-11.08-10.58s4.6-10.94 10.58-11.08c5.98-.14 10.94 4.6 11.08 10.58Z" class="cls-5"/>
  <path d="M1149.32 89.03a4.384 4.384 0 0 1-4.29 4.49 4.384 4.384 0 0 1-4.49-4.29 4.384 4.384 0 0 1 4.29-4.49 4.384 4.384 0 0 1 4.49 4.29Z" class="cls-16"/>
  <path d="M1143.84 115.22c.14 5.98-4.6 10.94-10.58 11.08-5.98.14-10.94-4.6-11.08-10.58s4.6-10.94 10.58-11.08c5.98-.14 10.94 4.6 11.08 10.58Z" class="cls-5"/>
  <path d="M1140.24 111.41a4.384 4.384 0 0 1-4.29 4.49 4.384 4.384 0 0 1-4.49-4.29c-.06-2.42 1.86-4.44 4.29-4.49s4.44 1.86 4.49 4.29Z" class="cls-16"/>
  <path d="M1097.2 123.57c.14 5.98-4.6 10.94-10.58 11.08-5.98.14-10.94-4.6-11.08-10.58-.14-5.98 4.6-10.94 10.58-11.08 5.98-.14 10.94 4.6 11.08 10.58Z" class="cls-5"/>
  <path d="M1093.6 119.76a4.384 4.384 0 0 1-4.29 4.49c-2.42.06-4.44-1.86-4.49-4.29s1.86-4.44 4.29-4.49a4.384 4.384 0 0 1 4.49 4.29Z" class="cls-16"/>
  <path d="M1118.85 123.57c.14 5.98-4.6 10.94-10.58 11.08-5.98.14-10.94-4.6-11.08-10.58-.14-5.98 4.6-10.94 10.58-11.08 5.98-.14 10.94 4.6 11.08 10.58Z" class="cls-5"/>
  <path d="M1115.25 119.76a4.384 4.384 0 0 1-4.29 4.49 4.384 4.384 0 0 1-4.49-4.29 4.384 4.384 0 0 1 4.29-4.49 4.384 4.384 0 0 1 4.49 4.29Z" class="cls-16"/>
  <path d="M1133.15 121.33c.14 5.98-4.6 10.94-10.58 11.08-5.98.14-10.94-4.6-11.08-10.58-.14-5.98 4.6-10.94 10.58-11.08s10.94 4.6 11.08 10.58Z" class="cls-5"/>
  <path d="M1129.55 117.52a4.384 4.384 0 0 1-4.29 4.49 4.384 4.384 0 0 1-4.49-4.29 4.384 4.384 0 0 1 4.29-4.49 4.384 4.384 0 0 1 4.49 4.29Z" class="cls-16"/>
  <path d="M1177.64 111.36c.14 5.98-4.6 10.94-10.58 11.08-5.98.14-10.94-4.6-11.08-10.58-.14-5.98 4.6-10.94 10.58-11.08 5.98-.14 10.94 4.6 11.08 10.58Z" class="cls-5"/>
  <path d="M1174.04 107.55a4.384 4.384 0 0 1-4.29 4.49 4.384 4.384 0 0 1-4.49-4.29 4.384 4.384 0 0 1 4.29-4.49 4.384 4.384 0 0 1 4.49 4.29Z" class="cls-16"/>
  <path d="M1156.68 103.23c.14 5.98-4.6 10.94-10.58 11.08-5.98.14-10.94-4.6-11.08-10.58-.14-5.98 4.6-10.94 10.58-11.08s10.94 4.6 11.08 10.58Z" class="cls-5"/>
  <path d="M1153.07 99.42a4.384 4.384 0 0 1-4.29 4.49 4.384 4.384 0 0 1-4.49-4.29 4.384 4.384 0 0 1 4.29-4.49 4.384 4.384 0 0 1 4.49 4.29Z" class="cls-16"/>
  <path d="M1063.75 89.81c.14 5.98-4.6 10.94-10.58 11.08-5.98.14-10.94-4.6-11.08-10.58-.14-5.98 4.6-10.94 10.58-11.08 5.98-.14 10.94 4.6 11.08 10.58Z" class="cls-5"/>
  <path d="M1060.14 86a4.384 4.384 0 0 1-4.29 4.49 4.384 4.384 0 0 1-4.49-4.29 4.384 4.384 0 0 1 4.29-4.49 4.384 4.384 0 0 1 4.49 4.29Z" class="cls-16"/>
  <path d="M1095.65 76.45c.14 5.98-4.6 10.94-10.58 11.08s-10.94-4.6-11.08-10.58c-.14-5.98 4.6-10.94 10.58-11.08 5.98-.14 10.94 4.6 11.08 10.58Z" class="cls-5"/>
  <path d="M1092.05 72.64a4.384 4.384 0 0 1-4.29 4.49 4.384 4.384 0 0 1-4.49-4.29 4.384 4.384 0 0 1 4.29-4.49 4.384 4.384 0 0 1 4.49 4.29Z" class="cls-16"/>
  <path d="M1123.69 107.54c.14 5.98-4.6 10.94-10.58 11.08s-10.94-4.6-11.08-10.58c-.14-5.98 4.6-10.94 10.58-11.08 5.98-.14 10.94 4.6 11.08 10.58Z" class="cls-5"/>
  <path d="M1120.09 103.73a4.384 4.384 0 0 1-4.29 4.49 4.384 4.384 0 0 1-4.49-4.29 4.384 4.384 0 0 1 4.29-4.49 4.384 4.384 0 0 1 4.49 4.29Z" class="cls-16"/>
  <path d="M1090.93 107.58c.14 5.98-4.6 10.94-10.58 11.08-5.98.14-10.94-4.6-11.08-10.58-.14-5.98 4.6-10.94 10.58-11.08 5.98-.14 10.94 4.6 11.08 10.58Z" class="cls-5"/>
  <path d="M1087.33 103.77a4.384 4.384 0 0 1-4.29 4.49c-2.42.06-4.44-1.86-4.49-4.29s1.86-4.44 4.29-4.49a4.384 4.384 0 0 1 4.49 4.29Z" class="cls-16"/>
  <path d="M1058.22 102.65c.14 5.98-4.6 10.94-10.58 11.08-5.98.14-10.94-4.6-11.08-10.58-.14-5.98 4.6-10.94 10.58-11.08s10.94 4.6 11.08 10.58Z" class="cls-5"/>
  <path d="M1054.62 98.84a4.384 4.384 0 0 1-4.29 4.49 4.384 4.384 0 0 1-4.49-4.29 4.384 4.384 0 0 1 4.29-4.49 4.384 4.384 0 0 1 4.49 4.29Z" class="cls-16"/>
  <path d="M1107.24 89.16c.14 5.98-4.6 10.94-10.58 11.08-5.98.14-10.94-4.6-11.08-10.58s4.6-10.94 10.58-11.08c5.98-.14 10.94 4.6 11.08 10.58Z" class="cls-5"/>
  <path d="M1103.63 85.35a4.384 4.384 0 0 1-4.29 4.49 4.384 4.384 0 0 1-4.49-4.29 4.384 4.384 0 0 1 4.29-4.49 4.384 4.384 0 0 1 4.49 4.29Z" class="cls-16"/>
  <path d="M113.66 292.07c16.28 12.66 26.36 21.51 48.19 7.31 19.42-12.64 46.65-11.53 69.68-12.63s55.5 11.73 51.32-.78-14.64-36.59-45.68-40.39-86.75 4.45-114.05 17.67c-17.11 8.28-13.48 25.69-9.46 28.83Z" style="fill:#e35b30;stroke:#000;stroke-width:6px;stroke-miterlimit:10"/>
  <path d="M120.25 280.25s15.01 20.82 27.6 14.04c12.59-6.78 39.22-24.19 76.98-17.18" style="stroke:#ed8366;stroke-width:5px;stroke-miterlimit:10;fill:none;stroke-linecap:round"/>
  <path d="M1366.6 324.26c-1.83 0-3.5-.9-4.49-2.42-.95-1.46-2.1-3.07-3.32-4.78-3.54-4.95-7.49-10.46-9.51-16.32-.56.04-1.13.06-1.71.06-1.64 0-3.39-.15-5.21-.46-3.95-.66-7.81-1.59-11.55-2.5-5.29-1.28-10.28-2.5-15.55-2.99-2.87-.27-5.83-.41-8.79-.41-14.34 0-27.89 3.12-42.24 6.43-1.54.35-3.08.71-4.63 1.06-5.96 1.36-14.12 3.22-22.02 3.22-9.88 0-17.09-2.99-21.42-8.9-4.03-5.5-3.8-10.26-2.89-13.29 2.37-7.89 11.3-12.65 16.47-14.8 2.77-17.75 25.94-21.55 45.25-21.55 6.09 0 12.76.37 19.82 1.09 20.2 2.08 47.99 9.74 66.62 34.32.81-.02 1.6-.04 2.38-.04 15.63 0 26.86 4.81 34.33 14.7 1.07 1.41 1.29 3.21.59 4.82-.79 1.81-2.64 3.16-4.62 3.36-1.9.2-3.81.29-5.69.29-5.65 0-11.17-.88-16.51-2.62 1.38 5.77 1.29 11.86-.31 17.92-.6 2.28-2.61 3.82-5 3.82Z" class="cls-15"/>
  <path d="M1274.99 249.6c7.65 0 14.71.58 19.51 1.08 25.77 2.65 49.98 13.11 65.46 34.39 1.28-.06 2.57-.1 3.84-.1 12.24 0 24.07 3.1 31.94 13.51 1.14 1.51-.46 3.23-1.94 3.39-1.81.19-3.6.28-5.38.28-7.5 0-14.71-1.64-21.45-4.79 3.15 6.91 3.78 14.56 1.73 22.32-.28 1.06-1.18 1.58-2.1 1.58-.75 0-1.51-.35-1.97-1.05-4.03-6.21-11.24-14.49-13.19-22.77-1.25.25-2.55.36-3.87.36-1.56 0-3.15-.15-4.72-.42-9.22-1.53-17.91-4.64-27.3-5.52-3.07-.29-6.09-.42-9.08-.42-16.25 0-31.45 3.9-47.53 7.56-5.86 1.33-13.8 3.14-21.35 3.14s-14.7-1.8-19-7.68c-8.53-11.63 3.72-20.4 13.94-24.19 1.2-17.14 23.64-20.68 42.48-20.68m-.02-5.99c-34.49 0-45.39 11.44-47.9 22.44-5.74 2.61-14.2 7.74-16.69 16.05-1.11 3.68-1.42 9.44 3.34 15.93 4.93 6.72 12.95 10.13 23.84 10.13 8.23 0 16.59-1.9 22.68-3.29 1.55-.35 3.09-.71 4.63-1.06 14.18-3.27 27.57-6.35 41.57-6.35 2.87 0 5.74.13 8.51.39 5.05.48 9.94 1.66 15.12 2.92 3.79.92 7.71 1.87 11.76 2.54 1.87.31 3.68.48 5.38.49 2.32 5.53 6.01 10.68 9.11 15.01 1.2 1.68 2.33 3.26 3.24 4.67a8.32 8.32 0 0 0 7 3.79c3.77 0 6.94-2.43 7.9-6.05 1.29-4.87 1.67-9.76 1.17-14.53 4.16.97 8.43 1.46 12.75 1.46 1.98 0 4-.1 5.99-.31 3.07-.32 5.84-2.34 7.06-5.15 1.14-2.61.78-5.54-.94-7.83-7.96-10.54-20.32-15.89-36.72-15.89h-.93c-15.32-19.45-38.67-31.28-67.76-34.27-7.16-.74-13.93-1.11-20.13-1.11Z" class="cls-11"/>
  <path d="M1217.52 286.03c.29 1.84.73 3.59 1.88 5.1 1.21 1.58 2.61 2.85 4.23 4.01 3.04 2.16 6.67 3.5 10.3 4.27 8.8 1.86 17.73.98 26.45-.87 8.68-1.85 17.15-4.57 25.8-6.56 4.22-.97 8.52-1.82 12.84-2.19 4.29-.36 8.65-.26 12.94.14 4.74.45 9.43 1.41 13.99 2.76 2.31.69 4.62 1.37 6.89 2.19s4.47 1.89 6.93 1.98c.72.03 1.37-.92.89-1.55-2.48-3.25-7.07-4.75-10.76-6.21-3.93-1.56-8.13-2.57-12.28-3.32-8.44-1.53-17.09-1.82-25.61-.77-17.16 2.1-33.41 10.22-50.96 9.27-4.01-.22-8.25-.99-11.8-2.64-1.64-.77-3.2-1.68-4.53-2.85s-2.95-2.59-3.94-4.11c-1.15-1.77-3.57-.58-3.26 1.37Zm17.71-16.99c12.9-3.69 26.22-5.2 39.62-5.28s26.4 1.64 39.14 5.14c3.51.97 7.01 2.03 10.45 3.23 1.79.62 3.56 1.29 5.33 1.98s3.48 1.52 5.29 2c.53.14.79-.56.36-.86-2.7-1.83-6.09-2.94-9.13-4.11s-6.3-2.32-9.52-3.27c-6.5-1.92-13.16-3.36-19.87-4.33-13.1-1.9-26.58-2.19-39.69-.14a158.06 158.06 0 0 0-22.13 5.1c-.34.11-.2.64.15.54Z" style="fill:#ffcd7d;stroke-width:0"/>
  <path d="M651.88 256.54c-3.16-6.19-7.99-11.44-13.71-15.35-3.03-2.07-6.34-3.65-9.44-5.61-5.19-3.27-6.46-5.9-8.6-11.51-5.36-14.08-23.65-8.44-32.55-1.36-2.78 2.21-5.24 4.77-7.24 7.71-.69 1.02-1.47 3.02-2.33 3.97-1.69 1.86-1.76 1.49-4.22 2.27-5.74 1.82-7.94 6.09-10.57 11.11-3.74 7.13-14.28 6.92-20.47 12.06-5.66 4.69-9.25 11.71-8.32 19.15 1.17 9.35 7.82 16.8 19.77 21.68 23.65 9.65 60.11 9.22 80.64-.14 7.03-3.2 14.4-9.37 16.95-17.02 4.9-7.6 5.19-16.99.1-26.97Z" class="cls-6"/>
  <path d="M569.31 264.9a83.947 83.947 0 0 0 37.61-.75m-30.39-18.28c9.28 2.3 19 2.83 28.47 1.53m24.18-1.53c6.05 2.44 9.35 9.19 10.07 15.67" style="stroke:#b2ed9f;fill:none;stroke-linecap:round;stroke-linejoin:round;stroke-width:4px"/>
  <rect width="123.16" height="82.01" x="1526.7" y="28.66" rx="9.24" ry="9.24" style="fill:#e33030;stroke:#000;stroke-width:6px;stroke-miterlimit:10"/>
  <path d="M1588.97 97.41c-1.01 0-1.93-.15-2.76-.46s-1.56-.78-2.17-1.41c-.61-.64-1.1-1.44-1.45-2.4-.35-.96-.56-2.09-.62-3.39-.02-.48-.03-.9-.03-1.25s.01-.76.03-1.22c.04-1.23.24-2.32.59-3.27.35-.95.83-1.75 1.45-2.38.61-.64 1.34-1.12 2.19-1.46.84-.34 1.77-.51 2.78-.51s1.86.16 2.63.48c.77.32 1.41.74 1.94 1.27V74.6c0-.24.08-.44.25-.61.16-.16.37-.25.61-.25h5.07c.24 0 .44.08.61.25.16.16.25.37.25.61v21.64c0 .24-.08.44-.25.61-.16.16-.37.25-.61.25h-4.67a.81.81 0 0 1-.59-.25.781.781 0 0 1-.26-.61v-.92c-.53.64-1.19 1.15-1.99 1.53-.8.38-1.79.58-2.98.58Zm2.24-5.13c.57 0 1.03-.12 1.36-.36.34-.24.58-.56.72-.95.14-.39.22-.83.25-1.32.04-.48.07-.9.07-1.25s-.02-.76-.07-1.22c-.02-.46-.12-.87-.28-1.22-.16-.35-.41-.64-.74-.86-.33-.22-.77-.33-1.32-.33s-.99.12-1.32.35c-.33.23-.56.55-.71.95-.14.41-.24.87-.28 1.4-.07.7-.07 1.4 0 2.11.04.53.14.99.28 1.4.14.41.38.72.71.95.33.23.77.35 1.32.35Zm20.92 5.13c-2.74 0-4.92-.71-6.53-2.12-1.61-1.41-2.44-3.58-2.48-6.5v-.66c.07-1.82.47-3.36 1.2-4.62.73-1.26 1.77-2.22 3.09-2.88 1.33-.66 2.89-.99 4.69-.99 2.02 0 3.69.4 5.02 1.2 1.33.8 2.32 1.86 2.98 3.19.66 1.33.99 2.81.99 4.46v.92c0 .22-.09.42-.26.59s-.38.26-.62.26h-10.13v.2c0 .53.07.99.21 1.4.14.41.37.72.67.95.31.23.68.35 1.12.35.29 0 .53-.04.72-.13.2-.09.37-.2.51-.35.14-.14.27-.28.38-.41.2-.2.36-.32.49-.38.13-.05.33-.08.59-.08h5.16c.2 0 .37.07.51.2s.2.3.18.49c-.02.39-.21.87-.56 1.43-.35.56-.87 1.1-1.56 1.63-.69.53-1.57.97-2.65 1.32s-2.31.53-3.72.53Zm-2.07-10.82h4.08v-.07c0-.59-.08-1.1-.23-1.51-.15-.42-.38-.73-.69-.94-.31-.21-.68-.31-1.12-.31s-.81.1-1.12.31c-.31.21-.54.52-.69.94-.15.42-.23.92-.23 1.51v.07Zm14.57 10.49c-.24 0-.44-.08-.61-.25a.845.845 0 0 1-.25-.61V74.58c0-.24.08-.44.25-.61.16-.16.37-.25.61-.25h4.9c.22 0 .42.08.59.25.18.16.26.37.26.61v21.64c0 .24-.09.44-.26.61-.18.16-.37.25-.59.25h-4.9Z" class="cls-11"/>
  <rect width="123.16" height="82.01" x="1526.7" y="142.67" class="cls-6" rx="9.24" ry="9.24"/>
  <path d="M1553.43 211.43c-2.74 0-4.92-.71-6.53-2.12-1.61-1.41-2.44-3.58-2.48-6.5v-.66c.07-1.82.47-3.36 1.2-4.62.73-1.26 1.77-2.22 3.09-2.88 1.33-.66 2.89-.99 4.69-.99 2.02 0 3.69.4 5.02 1.2 1.33.8 2.32 1.86 2.98 3.19.66 1.33.99 2.81.99 4.46v.92c0 .22-.09.42-.26.59s-.38.26-.62.26h-10.13v.2c0 .53.07.99.21 1.4.14.41.37.72.67.95.31.23.68.35 1.12.35.29 0 .53-.04.72-.13.2-.09.37-.2.51-.35.14-.14.27-.28.38-.41.2-.2.36-.32.49-.38.13-.05.33-.08.59-.08h5.16c.2 0 .37.07.51.2s.2.3.18.49c-.02.39-.21.87-.56 1.43-.35.56-.87 1.1-1.56 1.63-.69.53-1.57.97-2.65 1.32s-2.31.53-3.72.53Zm-2.07-10.83h4.08v-.07c0-.59-.08-1.1-.23-1.51-.15-.42-.38-.73-.69-.94-.31-.21-.68-.31-1.12-.31s-.81.1-1.12.31c-.31.21-.54.52-.69.94-.15.42-.23.92-.23 1.51v.07Zm14.57 10.5c-.24 0-.44-.08-.61-.25a.845.845 0 0 1-.25-.61v-15.39c0-.24.08-.44.25-.61.16-.16.37-.25.61-.25h4.77c.24 0 .44.08.61.25.16.16.25.37.25.61v1.18c.57-.66 1.33-1.22 2.27-1.68.94-.46 2.02-.69 3.22-.69s2.26.27 3.22.82c.96.55 1.74 1.37 2.34 2.47.59 1.1.89 2.48.89 4.14v9.14c0 .24-.09.44-.26.61-.18.16-.38.25-.62.25h-5.2c-.24 0-.44-.08-.61-.25a.845.845 0 0 1-.25-.61v-8.91c0-.81-.2-1.44-.59-1.87-.39-.44-.95-.66-1.68-.66s-1.29.22-1.71.66c-.42.44-.62 1.06-.62 1.87v8.91c0 .24-.08.44-.25.61-.16.16-.37.25-.61.25h-5.16Zm30.29 0c-1.49 0-2.8-.22-3.93-.66-1.13-.44-2.01-1.16-2.63-2.15-.62-1-.94-2.32-.94-3.96v-5.3h-2.6c-.24 0-.44-.08-.61-.25a.845.845 0 0 1-.25-.61v-3.32c0-.24.08-.44.25-.61.16-.16.37-.25.61-.25h2.6v-5.39c0-.24.08-.44.25-.61.16-.16.37-.25.61-.25h4.77c.24 0 .44.08.61.25.16.16.25.37.25.61v5.39h4.15c.24 0 .44.08.61.25.16.16.25.37.25.61v3.32c0 .24-.08.44-.25.61-.16.16-.37.25-.61.25h-4.15v4.74c0 .64.13 1.13.39 1.5s.68.54 1.25.54h2.76c.24 0 .44.08.61.25.16.16.25.37.25.61v3.59c0 .24-.08.44-.25.61-.16.16-.37.25-.61.25h-3.39Zm15.17.33c-2.74 0-4.92-.71-6.53-2.12-1.61-1.41-2.44-3.58-2.48-6.5v-.66c.07-1.82.47-3.36 1.2-4.62.73-1.26 1.77-2.22 3.09-2.88 1.33-.66 2.89-.99 4.69-.99 2.02 0 3.69.4 5.02 1.2 1.33.8 2.32 1.86 2.98 3.19.66 1.33.99 2.81.99 4.46v.92c0 .22-.09.42-.26.59s-.38.26-.62.26h-10.13v.2c0 .53.07.99.21 1.4.14.41.37.72.67.95.31.23.68.35 1.12.35.29 0 .53-.04.72-.13.2-.09.37-.2.51-.35.14-.14.27-.28.38-.41.2-.2.36-.32.49-.38.13-.05.33-.08.59-.08h5.16c.2 0 .37.07.51.2s.2.3.18.49c-.02.39-.21.87-.56 1.43-.35.56-.87 1.1-1.56 1.63-.69.53-1.57.97-2.65 1.32s-2.31.53-3.72.53Zm-2.07-10.83h4.08v-.07c0-.59-.08-1.1-.23-1.51-.15-.42-.38-.73-.69-.94-.31-.21-.68-.31-1.12-.31s-.81.1-1.12.31c-.31.21-.54.52-.69.94-.15.42-.23.92-.23 1.51v.07Zm14.57 10.5c-.24 0-.44-.08-.61-.25a.845.845 0 0 1-.25-.61v-15.39c0-.24.08-.44.25-.61.16-.16.37-.25.61-.25h4.77c.24 0 .44.08.61.25.16.16.25.37.25.61v1.22c.66-.64 1.41-1.14 2.25-1.51.84-.37 1.77-.56 2.78-.56h1.48c.24 0 .45.08.62.25.18.16.26.37.26.61v4.24c0 .24-.09.45-.26.62s-.38.26-.62.26h-3.68c-.79 0-1.39.2-1.81.61-.42.41-.62 1-.62 1.79v7.86c0 .24-.08.44-.25.61-.16.16-.37.25-.61.25h-5.16Z" class="cls-11"/>
</svg>
