<svg xmlns="http://www.w3.org/2000/svg" viewBox="0 0 350 350">
  <circle cx="178.91" cy="178.24" r="130.46" style="stroke:#000;stroke-miterlimit:10;stroke-width:6px;fill:#000"/>
  <circle cx="171.09" cy="171.76" r="130.46" style="fill:#90cdf0;stroke:#000;stroke-miterlimit:10;stroke-width:6px"/>
  <circle cx="171.09" cy="171.76" r="100.08" style="fill:#497bed;stroke:#000;stroke-miterlimit:10;stroke-width:6px"/>
  <path d="M225.95 166.99c-3.16-6.19-7.99-11.44-13.71-15.35-3.03-2.07-6.34-3.65-9.44-5.61-5.19-3.27-6.46-5.9-8.6-11.51-5.36-14.08-23.65-8.44-32.55-1.36-2.78 2.21-5.24 4.77-7.24 7.71-.69 1.02-1.47 3.02-2.33 3.97-1.69 1.86-1.76 1.49-4.22 2.27-5.74 1.82-7.94 6.09-10.57 11.11-3.74 7.13-14.28 6.92-20.47 12.06-5.66 4.69-9.25 11.71-8.32 19.15 1.17 9.35 7.82 16.8 19.77 21.68 23.65 9.65 60.11 9.22 80.64-.14 7.03-3.2 14.4-9.37 16.95-17.02 4.9-7.6 5.19-16.99.1-26.97Z" style="fill:#7ee074;stroke:#000;stroke-miterlimit:10;stroke-width:6px"/>
  <path d="M143.38 175.34a83.947 83.947 0 0 0 37.61-.75m-30.39-18.27c9.28 2.3 19 2.83 28.47 1.53m24.18-1.53c6.05 2.44 9.35 9.19 10.07 15.67" style="fill:none;stroke:#b2ed9f;stroke-linecap:round;stroke-linejoin:round;stroke-width:4px"/>
</svg>
