<?xml version="1.0" encoding="UTF-8"?>
<svg id="conveyer_belt" data-name="conveyer belt" xmlns="http://www.w3.org/2000/svg" version="1.1" viewBox="0 0 1920.3 425">
  <defs>
    <style>
      .cls-1 {
        fill: #000;
      }

      .cls-1, .cls-2 {
        stroke-width: 0px;
      }

      .cls-2 {
        fill: #727272;
      }
    </style>
  </defs>
  <g>
    <rect class="cls-2" x="3" y="21.9" width="155.1" height="381.2"/>
    <path class="cls-1" d="M155.1,24.9v375.2H6V24.9h149.1M161.1,18.9H0v387.2h161.1V18.9h0Z"/>
  </g>
  <g>
    <rect class="cls-2" x="162.9" y="21.9" width="155.1" height="381.2"/>
    <path class="cls-1" d="M315,24.9v375.2h-149.1V24.9h149.1M321,18.9h-161.1v387.2h161.1V18.9h0Z"/>
  </g>
  <g>
    <rect class="cls-2" x="322.9" y="21.9" width="155.1" height="381.2"/>
    <path class="cls-1" d="M474.9,24.9v375.2h-149.1V24.9h149.1M480.9,18.9h-161.1v387.2h161.1V18.9h0Z"/>
  </g>
  <g>
    <rect class="cls-2" x="482.8" y="21.9" width="155.1" height="381.2"/>
    <path class="cls-1" d="M634.9,24.9v375.2h-149.1V24.9h149.1M640.9,18.9h-161.1v387.2h161.1V18.9h0Z"/>
  </g>
  <g>
    <rect class="cls-2" x="642.7" y="21.9" width="155.1" height="381.2"/>
    <path class="cls-1" d="M794.8,24.9v375.2h-149.1V24.9h149.1M800.8,18.9h-161.1v387.2h161.1V18.9h0Z"/>
  </g>
  <g>
    <rect class="cls-2" x="802.7" y="21.9" width="155.1" height="381.2"/>
    <path class="cls-1" d="M954.7,24.9v375.2h-149.1V24.9h149.1M960.7,18.9h-161.1v387.2h161.1V18.9h0Z"/>
  </g>
  <g>
    <rect class="cls-2" x="962.6" y="21.9" width="155.1" height="381.2"/>
    <path class="cls-1" d="M1114.7,24.9v375.2h-149.1V24.9h149.1M1120.7,18.9h-161.1v387.2h161.1V18.9h0Z"/>
  </g>
  <g>
    <rect class="cls-2" x="1122.5" y="21.9" width="155.1" height="381.2"/>
    <path class="cls-1" d="M1274.6,24.9v375.2h-149.1V24.9h149.1M1280.6,18.9h-161.1v387.2s161.1,0,161.1,0V18.9h0Z"/>
  </g>
  <g>
    <rect class="cls-2" x="1282.5" y="21.9" width="155.1" height="381.2"/>
    <path class="cls-1" d="M1434.5,24.9v375.2h-149.1V24.9h149.1M1440.5,18.9h-161.1v387.2h161.1V18.9h0Z"/>
  </g>
  <g>
    <rect class="cls-2" x="1442.4" y="21.9" width="155.1" height="381.2"/>
    <path class="cls-1" d="M1594.5,24.9v375.2h-149.1V24.9h149.1M1600.5,18.9h-161.1v387.2h161.1V18.9h0Z"/>
  </g>
  <g>
    <rect class="cls-2" x="1602.3" y="21.9" width="155.1" height="381.2"/>
    <path class="cls-1" d="M1754.4,24.9v375.2h-149.1V24.9h149.1M1760.4,18.9h-161.1v387.2s161.1,0,161.1,0V18.9h0Z"/>
  </g>
  <g>
    <rect class="cls-2" x="1762.3" y="21.9" width="155.1" height="381.3"/>
    <path class="cls-1" d="M1914.3,24.9v375.2h-149.1V24.9h149.1M1920.3,18.9h-161.1v387.2s161.1,0,161.1,0V18.9h0Z"/>
  </g>
</svg>