<svg xmlns="http://www.w3.org/2000/svg" viewBox="0 0 200 200">
  <path d="M52.11 72.13v55.74c0 6.54 5.3 11.85 11.85 11.85h38.29c2.75 0 5.41-.96 7.54-2.71l33.79-27.87c5.75-4.74 5.75-13.54 0-18.28l-33.79-27.87a11.854 11.854 0 0 0-7.54-2.71H63.96c-6.54 0-11.85 5.3-11.85 11.85Z" style="fill:#497bed;stroke:#000;stroke-miterlimit:10;stroke-width:6px"/>
  <path d="M80.96 112.66c-.28 0-.54-.11-.77-.32a1.03 1.03 0 0 1-.34-.79V83.87c0-.31.11-.58.34-.79.23-.21.48-.32.77-.32h11.7c2.76 0 5.15.45 7.18 1.34 2.02.9 3.62 2.21 4.78 3.95 1.17 1.74 1.79 3.87 1.88 6.41.06 1.23.09 2.31.09 3.25s-.03 2.01-.09 3.2c-.11 2.68-.72 4.88-1.82 6.62-1.1 1.74-2.64 3.03-4.63 3.87-1.99.84-4.39 1.26-7.18 1.26H80.95Zm8.07-7.26h3.63c.94 0 1.74-.16 2.39-.47.65-.31 1.17-.8 1.54-1.47.37-.67.57-1.53.6-2.58.03-.83.05-1.57.06-2.22.01-.65.01-1.31 0-1.96-.02-.65-.04-1.38-.06-2.18-.06-1.57-.51-2.71-1.35-3.42s-1.97-1.07-3.4-1.07h-3.42v15.38Z" style="fill:#000;stroke-width:0"/>
</svg>
