<svg xmlns="http://www.w3.org/2000/svg" viewBox="0 0 200 200">
  <rect width="159.93" height="106.5" x="20.03" y="46.75" rx="12" ry="12" style="fill:#497bed;stroke:#000;stroke-miterlimit:10;stroke-width:6px"/>
  <path d="M100.89 136.03c-1.31 0-2.51-.2-3.59-.6s-2.02-1.01-2.82-1.84c-.8-.83-1.42-1.86-1.88-3.12-.46-1.25-.73-2.72-.81-4.4a31.63 31.63 0 0 1 0-3.2c.06-1.59.31-3.01.77-4.25.46-1.24 1.08-2.27 1.88-3.1.8-.83 1.74-1.46 2.84-1.9 1.1-.44 2.3-.66 3.61-.66s2.42.21 3.42.62c1 .41 1.84.96 2.52 1.64v-8.84c0-.31.11-.58.32-.79.21-.21.48-.32.79-.32h6.58c.31 0 .58.11.79.32.21.21.32.48.32.79v28.11c0 .31-.11.58-.32.79-.21.21-.48.32-.79.32h-6.07c-.29 0-.54-.11-.77-.32a1.03 1.03 0 0 1-.34-.79v-1.2c-.68.83-1.54 1.49-2.58 1.99s-2.33.75-3.87.75Zm2.91-6.66c.74 0 1.33-.16 1.77-.47.44-.31.75-.73.94-1.24.19-.51.29-1.08.32-1.71.06-.63.09-1.17.09-1.62s-.03-.98-.09-1.58c-.03-.6-.15-1.12-.36-1.58a2.58 2.58 0 0 0-.96-1.11c-.43-.28-1-.43-1.71-.43s-1.28.15-1.71.45c-.43.3-.73.71-.92 1.24-.19.53-.31 1.13-.36 1.82-.09.91-.09 1.82 0 2.73.06.68.18 1.29.36 1.82s.49.94.92 1.24c.43.3 1 .45 1.71.45Zm27.17 6.66c-3.56 0-6.39-.92-8.48-2.76-2.09-1.84-3.17-4.65-3.23-8.44v-.85c.09-2.36.61-4.36 1.56-6 .95-1.64 2.29-2.88 4.02-3.74 1.72-.85 3.75-1.28 6.09-1.28 2.62 0 4.79.52 6.51 1.56 1.72 1.04 3.01 2.42 3.87 4.14.85 1.72 1.28 3.65 1.28 5.79v1.2c0 .28-.11.54-.34.77s-.5.34-.81.34h-13.16v.26c0 .68.09 1.29.28 1.82.18.53.48.94.88 1.24.4.3.88.45 1.45.45.37 0 .68-.06.94-.17.26-.11.48-.26.66-.45.19-.18.35-.36.49-.53.26-.26.47-.42.64-.49.17-.07.43-.11.77-.11h6.71c.26 0 .48.09.66.26.18.17.26.38.23.64-.03.51-.27 1.13-.73 1.86-.46.73-1.13 1.43-2.03 2.11-.9.68-2.04 1.25-3.44 1.71s-3 .68-4.83.68Zm-2.69-14.05h5.3v-.09c0-.77-.1-1.42-.3-1.96-.2-.54-.5-.95-.9-1.22s-.88-.41-1.45-.41-1.05.14-1.45.41c-.4.27-.7.68-.9 1.22-.2.54-.3 1.2-.3 1.96v.09Zm18.92 13.63c-.31 0-.58-.11-.79-.32-.21-.21-.32-.48-.32-.79v-28.11c0-.31.11-.58.32-.79.21-.21.48-.32.79-.32h6.36c.28 0 .54.11.77.32.23.21.34.48.34.79v28.11c0 .31-.11.58-.34.79-.23.21-.48.32-.77.32h-6.36Z" style="fill:#000;stroke-width:0"/>
</svg>
