<svg xmlns="http://www.w3.org/2000/svg" viewBox="0 0 200 200">
  <rect width="159.93" height="106.5" x="20.03" y="46.75" rx="12" ry="12" style="fill:#497bed;stroke:#000;stroke-miterlimit:10;stroke-width:6px"/>
  <path d="M54.74 136.03c-3.56 0-6.39-.92-8.48-2.76-2.09-1.84-3.17-4.65-3.23-8.44v-.85c.09-2.36.61-4.36 1.56-6 .95-1.64 2.29-2.88 4.02-3.74 1.72-.85 3.75-1.28 6.09-1.28 2.62 0 4.79.52 6.51 1.56 1.72 1.04 3.01 2.42 3.87 4.14.85 1.72 1.28 3.65 1.28 5.79v1.2c0 .28-.11.54-.34.77s-.5.34-.81.34H52.05v.26c0 .68.09 1.29.28 1.82.18.53.48.94.88 1.24.4.3.88.45 1.45.45.37 0 .68-.06.94-.17.26-.11.48-.26.66-.45.19-.18.35-.36.49-.53.26-.26.47-.42.64-.49.17-.07.43-.11.77-.11h6.71c.26 0 .48.09.66.26.18.17.26.38.23.64-.03.51-.27 1.13-.73 1.86-.46.73-1.13 1.43-2.03 2.11-.9.68-2.04 1.25-3.44 1.71s-3 .68-4.83.68Zm-2.69-14.05h5.3v-.09c0-.77-.1-1.42-.3-1.96-.2-.54-.5-.95-.9-1.22s-.88-.41-1.45-.41-1.05.14-1.45.41c-.4.27-.7.68-.9 1.22-.2.54-.3 1.2-.3 1.96v.09Zm18.92 13.63c-.31 0-.58-.11-.79-.32-.21-.21-.32-.48-.32-.79v-19.99c0-.31.11-.58.32-.79.21-.21.48-.32.79-.32h6.19c.31 0 .58.11.79.32.21.21.32.48.32.79v1.54c.74-.85 1.72-1.58 2.95-2.18 1.22-.6 2.62-.9 4.19-.9s2.93.36 4.19 1.07c1.25.71 2.26 1.78 3.03 3.2.77 1.42 1.15 3.22 1.15 5.38v11.87c0 .31-.11.58-.34.79-.23.21-.5.32-.81.32h-6.75c-.31 0-.58-.11-.79-.32-.21-.21-.32-.48-.32-.79v-11.58c0-1.05-.26-1.86-.77-2.43-.51-.57-1.24-.85-2.18-.85s-1.68.29-2.22.85c-.54.57-.81 1.38-.81 2.43v11.58c0 .31-.11.58-.32.79-.21.21-.48.32-.79.32h-6.71Zm39.34 0c-1.94 0-3.64-.28-5.1-.85-1.47-.57-2.61-1.5-3.42-2.8-.81-1.3-1.22-3.01-1.22-5.15v-6.88H97.2c-.31 0-.58-.11-.79-.32-.21-.21-.32-.48-.32-.79v-4.31c0-.31.11-.58.32-.79.21-.21.48-.32.79-.32h3.37v-7.01c0-.31.11-.58.32-.79.21-.21.48-.32.79-.32h6.19c.31 0 .58.11.79.32.21.21.32.48.32.79v7.01h5.38c.31 0 .58.11.79.32.21.21.32.48.32.79v4.31c0 .31-.11.58-.32.79-.21.21-.48.32-.79.32h-5.38v6.15c0 .83.17 1.47.51 1.94s.88.7 1.62.7h3.59c.31 0 .58.11.79.32.21.21.32.48.32.79v4.66c0 .31-.11.58-.32.79-.21.21-.48.32-.79.32h-4.4Zm19.69.42c-3.56 0-6.39-.92-8.48-2.76-2.09-1.84-3.17-4.65-3.23-8.44v-.85c.09-2.36.61-4.36 1.56-6 .95-1.64 2.29-2.88 4.02-3.74 1.72-.85 3.75-1.28 6.09-1.28 2.62 0 4.79.52 6.51 1.56 1.72 1.04 3.01 2.42 3.87 4.14.85 1.72 1.28 3.65 1.28 5.79v1.2c0 .28-.11.54-.34.77s-.5.34-.81.34h-13.16v.26c0 .68.09 1.29.28 1.82.18.53.48.94.88 1.24.4.3.88.45 1.45.45.37 0 .68-.06.94-.17.26-.11.48-.26.66-.45.19-.18.35-.36.49-.53.26-.26.47-.42.64-.49.17-.07.43-.11.77-.11h6.71c.26 0 .48.09.66.26.18.17.26.38.23.64-.03.51-.27 1.13-.73 1.86-.46.73-1.13 1.43-2.03 2.11-.9.68-2.04 1.25-3.44 1.71s-3 .68-4.83.68Zm-2.69-14.05h5.3v-.09c0-.77-.1-1.42-.3-1.96-.2-.54-.5-.95-.9-1.22s-.88-.41-1.45-.41-1.05.14-1.45.41c-.4.27-.7.68-.9 1.22-.2.54-.3 1.2-.3 1.96v.09Zm18.93 13.63c-.31 0-.58-.11-.79-.32-.21-.21-.32-.48-.32-.79v-19.99c0-.31.11-.58.32-.79.21-.21.48-.32.79-.32h6.19c.31 0 .58.11.79.32.21.21.32.48.32.79v1.58c.85-.83 1.83-1.48 2.93-1.96s2.3-.73 3.61-.73H162c.31 0 .58.11.81.32.23.21.34.48.34.79v5.51c0 .31-.11.58-.34.81s-.5.34-.81.34h-4.78c-1.03 0-1.81.26-2.35.79s-.81 1.3-.81 2.33v10.21c0 .31-.11.58-.32.79-.21.21-.48.32-.79.32h-6.71Z" style="fill:#000;stroke-width:0"/>
</svg>
