<svg xmlns="http://www.w3.org/2000/svg" id="conveyer_belt" viewBox="0 0 350 350">
  <defs>
    <style>
      .cls-2{stroke:#000;stroke-miterlimit:10;stroke-width:6px;fill:#e48341}.cls-5{fill:#fff;stroke-width:0}
    </style>
  </defs>
  <circle cx="178.91" cy="178.24" r="130.46" style="stroke:#000;stroke-miterlimit:10;stroke-width:6px;fill:#000"/>
  <circle cx="171.09" cy="171.76" r="130.46" style="fill:#90cdf0;stroke:#000;stroke-miterlimit:10;stroke-width:6px"/>
  <circle cx="171.09" cy="171.76" r="100.08" style="fill:#497bed;stroke:#000;stroke-miterlimit:10;stroke-width:6px"/>
  <path d="M100.27 176.39c.14 5.98-4.6 10.94-10.58 11.08s-10.94-4.6-11.08-10.58c-.14-5.98 4.6-10.94 10.58-11.08 5.98-.14 10.94 4.6 11.08 10.58Z" class="cls-2"/>
  <path d="M96.67 172.58a4.384 4.384 0 0 1-4.29 4.49 4.384 4.384 0 0 1-4.49-4.29 4.384 4.384 0 0 1 4.29-4.49 4.384 4.384 0 0 1 4.49 4.29Z" class="cls-5"/>
  <path d="M126.96 173.95c.14 5.98-4.6 10.94-10.58 11.08-5.98.14-10.94-4.6-11.08-10.58-.14-5.98 4.6-10.94 10.58-11.08 5.98-.14 10.94 4.6 11.08 10.58Z" class="cls-2"/>
  <path d="M123.36 170.14a4.384 4.384 0 0 1-4.29 4.49 4.384 4.384 0 0 1-4.49-4.29 4.384 4.384 0 0 1 4.29-4.49 4.384 4.384 0 0 1 4.49 4.29Z" class="cls-5"/>
  <path d="M164.69 196.84c.14 5.98-4.6 10.94-10.58 11.08-5.98.14-10.94-4.6-11.08-10.58-.14-5.98 4.6-10.94 10.58-11.08 5.98-.14 10.94 4.6 11.08 10.58Z" class="cls-2"/>
  <path d="M161.09 193.03c.06 2.42-1.86 4.44-4.29 4.49s-4.44-1.86-4.49-4.29a4.384 4.384 0 0 1 4.29-4.49 4.384 4.384 0 0 1 4.49 4.29Z" class="cls-5"/>
  <path d="M112.59 186.94c.14 5.98-4.6 10.94-10.58 11.08-5.98.14-10.94-4.6-11.08-10.58s4.6-10.94 10.58-11.08c5.98-.14 10.94 4.6 11.08 10.58Z" class="cls-2"/>
  <path d="M108.99 183.13a4.384 4.384 0 0 1-4.29 4.49 4.384 4.384 0 0 1-4.49-4.29 4.384 4.384 0 0 1 4.29-4.49 4.384 4.384 0 0 1 4.49 4.29Z" class="cls-5"/>
  <path d="M130.86 191.53c.14 5.98-4.6 10.94-10.58 11.08s-10.94-4.6-11.08-10.58c-.14-5.98 4.6-10.94 10.58-11.08 5.98-.14 10.94 4.6 11.08 10.58Z" class="cls-2"/>
  <path d="M127.26 187.71a4.384 4.384 0 0 1-4.29 4.49 4.384 4.384 0 0 1-4.49-4.29 4.384 4.384 0 0 1 4.29-4.49 4.384 4.384 0 0 1 4.49 4.29Z" class="cls-5"/>
  <path d="M200.93 168.81c.14 5.98-4.6 10.94-10.58 11.08-5.98.14-10.94-4.6-11.08-10.58-.14-5.98 4.6-10.94 10.58-11.08 5.98-.14 10.94 4.6 11.08 10.58Z" class="cls-2"/>
  <path d="M197.33 164.99c.06 2.42-1.86 4.44-4.29 4.49s-4.44-1.86-4.49-4.29a4.384 4.384 0 0 1 4.29-4.49 4.384 4.384 0 0 1 4.49 4.29Z" class="cls-5"/>
  <path d="M205.76 161.18c.14 5.98-4.6 10.94-10.58 11.08-5.98.14-10.94-4.6-11.08-10.58s4.6-10.94 10.58-11.08c5.98-.14 10.94 4.6 11.08 10.58Z" class="cls-2"/>
  <path d="M202.16 157.36a4.384 4.384 0 0 1-4.29 4.49 4.384 4.384 0 0 1-4.49-4.29c-.06-2.42 1.86-4.44 4.29-4.49s4.44 1.86 4.49 4.29Z" class="cls-5"/>
  <path d="M231.53 176.71c.14 5.98-4.6 10.94-10.58 11.08-5.98.14-10.94-4.6-11.08-10.58-.14-5.98 4.6-10.94 10.58-11.08 5.98-.14 10.94 4.6 11.08 10.58Z" class="cls-2"/>
  <path d="M227.93 172.9a4.384 4.384 0 0 1-4.29 4.49 4.384 4.384 0 0 1-4.49-4.29 4.384 4.384 0 0 1 4.29-4.49 4.384 4.384 0 0 1 4.49 4.29Z" class="cls-5"/>
  <path d="M187.2 170.31c.14 5.98-4.6 10.94-10.58 11.08-5.98.14-10.94-4.6-11.08-10.58-.14-5.98 4.6-10.94 10.58-11.08 5.98-.14 10.94 4.6 11.08 10.58Z" class="cls-2"/>
  <path d="M183.6 166.5a4.384 4.384 0 0 1-4.29 4.49 4.384 4.384 0 0 1-4.49-4.29 4.384 4.384 0 0 1 4.29-4.49 4.384 4.384 0 0 1 4.49 4.29Z" class="cls-5"/>
  <path d="M150.34 194.97c.14 5.98-4.6 10.94-10.58 11.08s-10.94-4.6-11.08-10.58c-.14-5.98 4.6-10.94 10.58-11.08 5.98-.14 10.94 4.6 11.08 10.58Z" class="cls-2"/>
  <path d="M146.74 191.16a4.384 4.384 0 0 1-4.29 4.49 4.384 4.384 0 0 1-4.49-4.29c-.06-2.42 1.86-4.44 4.29-4.49s4.44 1.86 4.49 4.29Z" class="cls-5"/>
  <path d="M161.44 178.86c.14 5.98-4.6 10.94-10.58 11.08-5.98.14-10.94-4.6-11.08-10.58-.14-5.98 4.6-10.94 10.58-11.08 5.98-.14 10.94 4.6 11.08 10.58Z" class="cls-2"/>
  <path d="M157.84 175.05a4.384 4.384 0 0 1-4.29 4.49 4.384 4.384 0 0 1-4.49-4.29 4.384 4.384 0 0 1 4.29-4.49 4.384 4.384 0 0 1 4.49 4.29Z" class="cls-5"/>
  <path d="M160.32 158.34c.14 5.98-4.6 10.94-10.58 11.08-5.98.14-10.94-4.6-11.08-10.58s4.6-10.94 10.58-11.08c5.98-.14 10.94 4.6 11.08 10.58Z" class="cls-2"/>
  <path d="M156.72 154.53a4.384 4.384 0 0 1-4.29 4.49 4.384 4.384 0 0 1-4.49-4.29 4.384 4.384 0 0 1 4.29-4.49 4.384 4.384 0 0 1 4.49 4.29Z" class="cls-5"/>
  <path d="M115.06 167.18c.14 5.98-4.6 10.94-10.58 11.08-5.98.14-10.94-4.6-11.08-10.58-.14-5.98 4.6-10.94 10.58-11.08 5.98-.14 10.94 4.6 11.08 10.58Z" class="cls-2"/>
  <path d="M111.46 163.37a4.384 4.384 0 0 1-4.29 4.49 4.384 4.384 0 0 1-4.49-4.29 4.384 4.384 0 0 1 4.29-4.49 4.384 4.384 0 0 1 4.49 4.29Z" class="cls-5"/>
  <path d="M146.81 149.99c.14 5.98-4.6 10.94-10.58 11.08-5.98.14-10.94-4.6-11.08-10.58-.14-5.98 4.6-10.94 10.58-11.08 5.98-.14 10.94 4.6 11.08 10.58Z" class="cls-2"/>
  <path d="M143.21 146.18a4.384 4.384 0 0 1-4.29 4.49 4.384 4.384 0 0 1-4.49-4.29 4.384 4.384 0 0 1 4.29-4.49 4.384 4.384 0 0 1 4.49 4.29Z" class="cls-5"/>
  <path d="M134.23 161.2c.14 5.98-4.6 10.94-10.58 11.08-5.98.14-10.94-4.6-11.08-10.58-.14-5.98 4.6-10.94 10.58-11.08 5.98-.14 10.94 4.6 11.08 10.58Z" class="cls-2"/>
  <path d="M130.63 157.39a4.384 4.384 0 0 1-4.29 4.49 4.384 4.384 0 0 1-4.49-4.29 4.384 4.384 0 0 1 4.29-4.49 4.384 4.384 0 0 1 4.49 4.29Z" class="cls-5"/>
  <path d="M220.03 173.08c.14 5.98-4.6 10.94-10.58 11.08-5.98.14-10.94-4.6-11.08-10.58-.14-5.98 4.6-10.94 10.58-11.08 5.98-.14 10.94 4.6 11.08 10.58Z" class="cls-2"/>
  <path d="M216.43 169.27a4.384 4.384 0 0 1-4.29 4.49 4.384 4.384 0 0 1-4.49-4.29c-.06-2.42 1.86-4.44 4.29-4.49s4.44 1.86 4.49 4.29Z" class="cls-5"/>
  <path d="M171.39 168.42c.14 5.98-4.6 10.94-10.58 11.08-5.98.14-10.94-4.6-11.08-10.58-.14-5.98 4.6-10.94 10.58-11.08 5.98-.14 10.94 4.6 11.08 10.58Z" class="cls-2"/>
  <path d="M167.79 164.61a4.384 4.384 0 0 1-4.29 4.49 4.384 4.384 0 0 1-4.49-4.29 4.384 4.384 0 0 1 4.29-4.49 4.384 4.384 0 0 1 4.49 4.29Z" class="cls-5"/>
  <path d="M193.49 187.02c.14 5.98-4.6 10.94-10.58 11.08-5.98.14-10.94-4.6-11.08-10.58-.14-5.98 4.6-10.94 10.58-11.08 5.98-.14 10.94 4.6 11.08 10.58Z" class="cls-2"/>
  <path d="M189.89 183.21a4.384 4.384 0 0 1-4.29 4.49 4.384 4.384 0 0 1-4.49-4.29 4.384 4.384 0 0 1 4.29-4.49 4.384 4.384 0 0 1 4.49 4.29Z" class="cls-5"/>
  <path d="M245.61 190.26c.14 5.98-4.6 10.94-10.58 11.08s-10.94-4.6-11.08-10.58c-.14-5.98 4.6-10.94 10.58-11.08 5.98-.14 10.94 4.6 11.08 10.58Z" class="cls-2"/>
  <path d="M242.01 186.45a4.384 4.384 0 0 1-4.29 4.49 4.384 4.384 0 0 1-4.49-4.29 4.384 4.384 0 0 1 4.29-4.49 4.384 4.384 0 0 1 4.49 4.29Z" class="cls-5"/>
  <path d="M254.13 174.33c.14 5.98-4.6 10.94-10.58 11.08-5.98.14-10.94-4.6-11.08-10.58-.14-5.98 4.6-10.94 10.58-11.08 5.98-.14 10.94 4.6 11.08 10.58Z" class="cls-2"/>
  <path d="M250.53 170.52a4.384 4.384 0 0 1-4.29 4.49 4.384 4.384 0 0 1-4.49-4.29 4.384 4.384 0 0 1 4.29-4.49 4.384 4.384 0 0 1 4.49 4.29Z" class="cls-5"/>
  <path d="M220.78 155.83c.14 5.98-4.6 10.94-10.58 11.08-5.98.14-10.94-4.6-11.08-10.58s4.6-10.94 10.58-11.08c5.98-.14 10.94 4.6 11.08 10.58Z" class="cls-2"/>
  <path d="M217.18 152.02a4.384 4.384 0 0 1-4.29 4.49 4.384 4.384 0 0 1-4.49-4.29 4.384 4.384 0 0 1 4.29-4.49 4.384 4.384 0 0 1 4.49 4.29Z" class="cls-5"/>
  <path d="M238.67 168.77c.14 5.98-4.6 10.94-10.58 11.08-5.98.14-10.94-4.6-11.08-10.58-.14-5.98 4.6-10.94 10.58-11.08 5.98-.14 10.94 4.6 11.08 10.58Z" class="cls-2"/>
  <path d="M235.07 164.96a4.384 4.384 0 0 1-4.29 4.49 4.384 4.384 0 0 1-4.49-4.29 4.384 4.384 0 0 1 4.29-4.49 4.384 4.384 0 0 1 4.49 4.29Z" class="cls-5"/>
  <path d="M229.59 191.15c.14 5.98-4.6 10.94-10.58 11.08-5.98.14-10.94-4.6-11.08-10.58-.14-5.98 4.6-10.94 10.58-11.08 5.98-.14 10.94 4.6 11.08 10.58Z" class="cls-2"/>
  <path d="M225.98 187.34a4.384 4.384 0 0 1-4.29 4.49 4.384 4.384 0 0 1-4.49-4.29c-.06-2.42 1.86-4.44 4.29-4.49s4.44 1.86 4.49 4.29Z" class="cls-5"/>
  <path d="M182.95 199.51c.14 5.98-4.6 10.94-10.58 11.08s-10.94-4.6-11.08-10.58c-.14-5.98 4.6-10.94 10.58-11.08 5.98-.14 10.94 4.6 11.08 10.58Z" class="cls-2"/>
  <path d="M179.35 195.7a4.384 4.384 0 0 1-4.29 4.49 4.384 4.384 0 0 1-4.49-4.29 4.384 4.384 0 0 1 4.29-4.49 4.384 4.384 0 0 1 4.49 4.29Z" class="cls-5"/>
  <path d="M204.6 199.5c.14 5.98-4.6 10.94-10.58 11.08-5.98.14-10.94-4.6-11.08-10.58-.14-5.98 4.6-10.94 10.58-11.08 5.98-.14 10.94 4.6 11.08 10.58Z" class="cls-2"/>
  <path d="M201 195.69a4.384 4.384 0 0 1-4.29 4.49 4.384 4.384 0 0 1-4.49-4.29 4.384 4.384 0 0 1 4.29-4.49 4.384 4.384 0 0 1 4.49 4.29Z" class="cls-5"/>
  <path d="M218.89 197.27c.14 5.98-4.6 10.94-10.58 11.08-5.98.14-10.94-4.6-11.08-10.58-.14-5.98 4.6-10.94 10.58-11.08 5.98-.14 10.94 4.6 11.08 10.58Z" class="cls-2"/>
  <path d="M215.29 193.45a4.384 4.384 0 0 1-4.29 4.49 4.384 4.384 0 0 1-4.49-4.29 4.384 4.384 0 0 1 4.29-4.49 4.384 4.384 0 0 1 4.49 4.29Z" class="cls-5"/>
  <path d="M263.39 187.3c.14 5.98-4.6 10.94-10.58 11.08-5.98.14-10.94-4.6-11.08-10.58-.14-5.98 4.6-10.94 10.58-11.08s10.94 4.6 11.08 10.58Z" class="cls-2"/>
  <path d="M259.79 183.49a4.384 4.384 0 0 1-4.29 4.49 4.384 4.384 0 0 1-4.49-4.29 4.384 4.384 0 0 1 4.29-4.49 4.384 4.384 0 0 1 4.49 4.29Z" class="cls-5"/>
  <path d="M242.42 179.17c.14 5.98-4.6 10.94-10.58 11.08-5.98.14-10.94-4.6-11.08-10.58-.14-5.98 4.6-10.94 10.58-11.08 5.98-.14 10.94 4.6 11.08 10.58Z" class="cls-2"/>
  <path d="M238.82 175.36a4.384 4.384 0 0 1-4.29 4.49 4.384 4.384 0 0 1-4.49-4.29 4.384 4.384 0 0 1 4.29-4.49 4.384 4.384 0 0 1 4.49 4.29Z" class="cls-5"/>
  <path d="M149.49 165.74c.14 5.98-4.6 10.94-10.58 11.08s-10.94-4.6-11.08-10.58 4.6-10.94 10.58-11.08c5.98-.14 10.94 4.6 11.08 10.58Z" class="cls-2"/>
  <path d="M145.89 161.93a4.384 4.384 0 0 1-4.29 4.49 4.384 4.384 0 0 1-4.49-4.29 4.384 4.384 0 0 1 4.29-4.49 4.384 4.384 0 0 1 4.49 4.29Z" class="cls-5"/>
  <path d="M181.4 152.39c.14 5.98-4.6 10.94-10.58 11.08-5.98.14-10.94-4.6-11.08-10.58-.14-5.98 4.6-10.94 10.58-11.08 5.98-.14 10.94 4.6 11.08 10.58Z" class="cls-2"/>
  <path d="M177.79 148.58a4.384 4.384 0 0 1-4.29 4.49 4.384 4.384 0 0 1-4.49-4.29 4.384 4.384 0 0 1 4.29-4.49 4.384 4.384 0 0 1 4.49 4.29Z" class="cls-5"/>
  <path d="M209.44 183.48c.14 5.98-4.6 10.94-10.58 11.08-5.98.14-10.94-4.6-11.08-10.58-.14-5.98 4.6-10.94 10.58-11.08 5.98-.14 10.94 4.6 11.08 10.58Z" class="cls-2"/>
  <path d="M205.83 179.67a4.384 4.384 0 0 1-4.29 4.49 4.384 4.384 0 0 1-4.49-4.29 4.384 4.384 0 0 1 4.29-4.49 4.384 4.384 0 0 1 4.49 4.29Z" class="cls-5"/>
  <path d="M176.68 183.52c.14 5.98-4.6 10.94-10.58 11.08-5.98.14-10.94-4.6-11.08-10.58-.14-5.98 4.6-10.94 10.58-11.08 5.98-.14 10.94 4.6 11.08 10.58Z" class="cls-2"/>
  <path d="M173.08 179.71a4.384 4.384 0 0 1-4.29 4.49 4.384 4.384 0 0 1-4.49-4.29 4.384 4.384 0 0 1 4.29-4.49 4.384 4.384 0 0 1 4.49 4.29Z" class="cls-5"/>
  <path d="M143.97 178.59c.14 5.98-4.6 10.94-10.58 11.08-5.98.14-10.94-4.6-11.08-10.58s4.6-10.94 10.58-11.08c5.98-.14 10.94 4.6 11.08 10.58Z" class="cls-2"/>
  <path d="M140.37 174.78a4.384 4.384 0 0 1-4.29 4.49 4.384 4.384 0 0 1-4.49-4.29 4.384 4.384 0 0 1 4.29-4.49 4.384 4.384 0 0 1 4.49 4.29Z" class="cls-5"/>
  <path d="M192.98 165.1c.14 5.98-4.6 10.94-10.58 11.08-5.98.14-10.94-4.6-11.08-10.58s4.6-10.94 10.58-11.08 10.94 4.6 11.08 10.58Z" class="cls-2"/>
  <path d="M189.38 161.28a4.384 4.384 0 0 1-4.29 4.49 4.384 4.384 0 0 1-4.49-4.29 4.384 4.384 0 0 1 4.29-4.49 4.384 4.384 0 0 1 4.49 4.29Z" class="cls-5"/>
</svg>
