<svg xmlns="http://www.w3.org/2000/svg" viewBox="0 0 200 200">
  <path d="M141.97 133.47H58.03c-6.54 0-11.85-5.3-11.85-11.85V100.7c0-4.02 2.04-7.77 5.42-9.95l41.97-27.08c3.91-2.52 8.93-2.52 12.84 0l41.97 27.08c3.38 2.18 5.42 5.93 5.42 9.95v20.92c0 6.54-5.3 11.85-11.85 11.85Z" style="fill:#497bed;stroke:#000;stroke-miterlimit:10;stroke-width:6px"/>
  <path d="M89.43 118.31c-.54 0-.97-.16-1.28-.47s-.5-.66-.56-1.03l-4.27-27.29s0-.06-.02-.09a.31.31 0 0 1-.02-.08c0-.26.09-.48.28-.66s.41-.28.66-.28h6.62c.88 0 1.37.36 1.45 1.07l2.09 14.35 2.43-7.6c.06-.2.19-.45.38-.75.2-.3.54-.45 1.03-.45h3.72c.48 0 .83.15 1.02.45.2.3.34.55.43.75l2.39 7.56 2.14-14.31c.08-.71.56-1.07 1.41-1.07h6.62c.26 0 .48.09.66.28a.9.9 0 0 1 .28.66v.08s-.01.06-.04.09l-4.27 27.29c-.03.37-.21.71-.53 1.03-.33.31-.76.47-1.3.47h-5.08c-.51 0-.9-.13-1.15-.41-.26-.27-.43-.5-.51-.7l-3.89-10.51-3.93 10.51c-.06.2-.22.43-.49.7s-.66.41-1.18.41h-5.08Z" style="fill:#000;stroke-width:0"/>
</svg>
